<svg width="312" height="223" viewBox="0 0 312 223" fill="none" xmlns="http://www.w3.org/2000/svg">
<path fill-rule="evenodd" clip-rule="evenodd" d="M127.158 24.6787C165.948 55.0071 204.653 88.9063 234.812 119.829C297.689 184.298 299.612 211.418 239.108 180.403C209.978 165.471 171.689 139.785 132.795 109.968C174.876 142.869 217.057 171.567 248.54 187.705C309.044 218.72 307.121 191.601 244.244 127.132C211.64 93.7019 169.048 56.7936 127.158 24.6787Z" fill="url(#paint0_linear_248_581)"/>
<path fill-rule="evenodd" clip-rule="evenodd" d="M207.18 156.047C173.441 123.167 136.328 90.8268 103.135 66.2064C33.9321 14.8767 7.97259 16.5379 45.1524 69.9169C63.0529 95.6166 92.3257 128.619 125.594 161.664C88.993 125.994 56.3631 89.6882 37.0167 61.9127C-0.163102 8.53378 25.7964 6.87253 94.9989 58.2022C130.883 84.8188 171.349 120.457 207.18 156.047Z" fill="url(#paint1_linear_248_581)"/>
<path fill-rule="evenodd" clip-rule="evenodd" d="M269.278 171.355C235.539 138.475 198.426 106.135 165.233 81.5145C96.0303 30.1848 70.0708 31.846 107.251 85.225C125.151 110.925 154.424 143.927 187.692 176.972C151.091 141.302 118.461 104.996 99.1149 77.2208C61.9351 23.8419 87.8946 22.1806 157.097 73.5103C192.982 100.127 233.447 135.766 269.278 171.355Z" fill="url(#paint2_linear_248_581)"/>
<path d="M124.144 119.184C121.494 117.038 118.161 115.796 114.566 115.885C106.175 116.091 99.5296 123.459 99.724 132.345C99.9183 141.229 106.878 148.264 115.27 148.059C115.929 148.042 116.577 147.982 117.213 147.88L114.665 143.369C113.649 141.569 114.571 139.3 116.561 138.7L128.962 134.963C129.274 134.869 129.587 134.778 129.901 134.688C130.062 133.686 130.135 132.653 130.112 131.599C130.102 131.143 130.074 130.692 130.029 130.247C127.123 127.247 125.039 123.437 124.144 119.184Z" fill="black"/>
<path d="M118.19 149.611C113.067 149.472 107.936 149.997 102.932 151.185L95.1881 153.024C93.14 153.51 92.1007 155.767 93.068 157.629L102.45 175.689C103.458 177.627 103.956 179.783 103.899 181.957L103.297 204.962C103.258 206.461 104.266 207.795 105.73 208.184L116.093 210.934C116.691 211.093 117.322 211.08 117.911 210.897L125.606 208.51L128.968 173.388C129.218 170.775 128.659 168.148 127.366 165.858L118.19 149.611Z" fill="black"/>
<path d="M166.645 208.12L177.264 210.941C177.4 210.977 177.536 211.004 177.674 211.022C177.848 211.046 178.024 211.056 178.199 211.051C178.497 211.043 178.794 210.994 179.082 210.905L189.288 207.741C190.73 207.294 191.665 205.92 191.546 204.425L189.718 181.469C189.546 179.3 189.929 177.125 190.831 175.148L199.241 156.731C200.108 154.832 198.949 152.618 196.877 152.215L189.044 150.691C184.087 149.726 179.043 149.4 174.037 149.712L165.338 166.068C164.189 168.228 163.682 170.667 163.874 173.102L166.645 208.12Z" fill="black"/>
<path d="M174.936 148.021C175.424 148.059 175.919 148.073 176.418 148.06C184.81 147.854 191.455 140.486 191.26 131.6C191.066 122.716 184.106 115.68 175.714 115.886C172.976 115.953 170.424 116.783 168.235 118.18C167.373 123.45 164.698 128.105 160.875 131.475C160.867 131.763 160.866 132.054 160.872 132.346C160.888 133.036 160.944 133.715 161.038 134.38C161.766 134.571 162.491 134.776 163.213 134.995L175.506 138.725C177.461 139.318 178.389 141.527 177.436 143.32L174.936 148.021Z" fill="black"/>
<path d="M169.552 95.4094L171.144 109.17H167.96L169.552 95.4094Z" fill="black"/>
<path d="M169.552 113.939L171.144 109.163H167.96L169.552 113.939Z" fill="black"/>
<path d="M176.626 154.347L181.783 149.722L179.021 149.484C177.36 149.341 175.688 149.406 174.043 149.679L173.343 151.041L176.626 154.347Z" fill="white"/>
<path d="M177.313 185.62L182.471 180.664L171.944 180.923L177.313 185.62Z" fill="white"/>
<path d="M176.626 154.262L182.47 180.677L171.943 180.935L176.626 154.262Z" fill="white"/>
<path d="M115.48 153.606L118.934 150.928L118.217 149.613C116.328 149.423 114.423 149.438 112.537 149.657L110.111 149.939L115.48 153.606Z" fill="white"/>
<path d="M116.171 184.968L121.329 180.012L110.802 180.271L116.171 184.968Z" fill="white"/>
<path d="M115.48 153.606L121.324 180.021L110.798 180.279L115.48 153.606Z" fill="white"/>
<path d="M164.335 113.909C164.335 124.301 155.964 132.726 145.637 132.726C135.31 132.726 126.938 124.301 126.938 113.909C126.938 103.517 135.31 95.0924 145.637 95.0924C155.964 95.0924 164.335 103.517 164.335 113.909Z" fill="black"/>
<path d="M117.656 144.294C116.681 142.395 117.795 140.098 119.901 139.666L133.748 136.827C141.591 135.219 149.684 135.219 157.527 136.827L171.375 139.666C173.48 140.098 174.594 142.395 173.62 144.294L162.186 166.566C161.145 168.594 160.663 170.86 160.789 173.132L162.322 200.804C162.406 202.321 161.412 203.691 159.934 204.095L146.505 207.767C145.937 207.922 145.338 207.922 144.771 207.767L131.341 204.095C129.863 203.691 128.869 202.321 128.953 200.804L130.487 173.132C130.613 170.86 130.13 168.594 129.089 166.566L117.656 144.294Z" fill="black"/>
<path d="M145.636 140.521L152.179 135.967L152.048 135.952C147.787 135.475 143.485 135.48 139.225 135.967L145.636 140.521Z" fill="white"/>
<path d="M145.636 177.206L152.113 171.561H139.158L145.636 177.206Z" fill="white"/>
<path d="M145.636 140.521L152.113 171.568H139.158L145.636 140.521Z" fill="white"/>
<path d="M145.191 83.052L172.9 95.4084L145.191 108.939L117.483 95.4084L145.191 83.052Z" fill="black"/>
<defs>
<linearGradient id="paint0_linear_248_581" x1="139.984" y1="118.351" x2="182.197" y2="63.2635" gradientUnits="userSpaceOnUse">
<stop stop-color="#31D8B0"/>
<stop offset="1" stop-color="white"/>
</linearGradient>
<linearGradient id="paint1_linear_248_581" x1="116.72" y1="155.924" x2="163.525" y2="108.822" gradientUnits="userSpaceOnUse">
<stop stop-color="#31D8B0" stop-opacity="0.41"/>
<stop offset="1" stop-color="white"/>
</linearGradient>
<linearGradient id="paint2_linear_248_581" x1="178.818" y1="171.232" x2="225.623" y2="124.13" gradientUnits="userSpaceOnUse">
<stop stop-color="#31D8B0" stop-opacity="0.41"/>
<stop offset="1" stop-color="white"/>
</linearGradient>
</defs>
</svg>
