<svg width="1366" height="923" viewBox="0 0 1366 923" fill="none" xmlns="http://www.w3.org/2000/svg">
<path d="M-4.6 663V55.95H259.595C286.955 55.95 312.035 61.65 334.835 73.05C357.635 84.45 377.3 99.555 393.83 118.365C410.93 137.175 424.04 158.265 433.16 181.635C442.85 205.005 447.695 228.945 447.695 253.455C447.695 280.245 442.85 305.895 433.16 330.405C423.47 354.915 409.505 376.005 391.265 393.675C373.595 411.345 352.79 424.17 328.85 432.15L471.635 663H363.905L232.235 451.815H91.16V663H-4.6ZM91.16 367.17H258.74C276.41 367.17 292.085 362.04 305.765 351.78C319.445 341.52 330.275 327.84 338.255 310.74C346.235 293.07 350.225 273.975 350.225 253.455C350.225 232.365 345.665 213.555 336.545 197.025C327.425 179.925 315.455 166.245 300.635 155.985C286.385 145.725 270.71 140.595 253.61 140.595H91.16V367.17Z" fill="#EEF7F5" fill-opacity="0.54"/>
<path d="M897.54 663L605.985 354.345C581.475 328.125 562.095 305.895 547.845 287.655C533.595 269.415 523.335 252.6 517.065 237.21C510.795 221.82 507.66 205.86 507.66 189.33C507.66 161.4 514.5 136.89 528.18 115.8C542.43 94.71 561.81 78.18 586.32 66.21C610.83 54.24 638.19 48.255 668.4 48.255C696.33 48.255 721.98 53.385 745.35 63.645C768.72 73.335 787.53 87.87 801.78 107.25C816.03 126.06 823.155 149.43 823.155 177.36C823.155 203.58 816.315 227.235 802.635 248.325C788.955 269.415 770.715 288.795 747.915 306.465C725.115 324.135 699.75 341.52 671.82 358.62C650.16 372.87 630.495 387.12 612.825 401.37C595.155 415.05 581.19 429.87 570.93 445.83C561.24 461.22 556.395 478.605 556.395 497.985C556.395 517.365 561.81 534.75 572.64 550.14C583.47 564.96 598.005 576.645 616.245 585.195C634.485 593.175 654.435 597.165 676.095 597.165C702.885 597.165 728.25 590.895 752.19 578.355C776.13 565.815 797.505 548.145 816.315 525.345C835.125 501.975 849.66 474.615 859.92 443.265C870.75 411.915 876.165 377.715 876.165 340.665H953.115C953.115 390.825 945.135 436.14 929.175 476.61C913.785 517.08 892.695 551.85 865.905 580.92C839.685 609.99 809.19 632.505 774.42 648.465C740.22 663.855 704.025 671.55 665.835 671.55C626.505 671.55 591.735 663.855 561.525 648.465C531.315 632.505 507.66 611.415 490.56 585.195C474.03 558.975 465.765 529.62 465.765 497.13C465.765 465.21 472.89 437.565 487.14 414.195C501.96 390.255 520.77 369.165 543.57 350.925C566.94 332.115 590.31 315.3 613.68 300.48C638.76 284.52 660.42 270.555 678.66 258.585C696.9 246.045 711.15 233.505 721.41 220.965C731.67 207.855 736.8 193.89 736.8 179.07C736.8 160.83 730.245 146.295 717.135 135.465C704.595 124.065 688.35 118.365 668.4 118.365C653.58 118.365 640.47 121.5 629.07 127.77C618.24 134.04 609.69 142.305 603.42 152.565C597.15 162.825 594.015 174.225 594.015 186.765C594.015 195.315 596.295 204.15 600.855 213.27C605.415 221.82 613.965 233.22 626.505 247.47C639.045 261.15 656.43 279.96 678.66 303.9L1021.52 663H897.54Z" fill="#EEF7F5" fill-opacity="0.54"/>
<path d="M1029.4 663V55.95H1244.86C1310.41 55.95 1365.13 69.63 1409.02 96.9899C1452.91 123.78 1485.69 160.26 1507.35 206.43C1529.58 252.03 1540.69 302.76 1540.69 358.62C1540.69 420.18 1528.44 473.76 1503.93 519.36C1479.99 564.96 1445.79 600.3 1401.33 625.38C1356.87 650.46 1304.71 663 1244.86 663H1029.4ZM1443.22 358.62C1443.22 315.87 1435.24 278.25 1419.28 245.76C1403.89 212.7 1381.38 187.05 1351.74 168.81C1322.67 150 1287.04 140.595 1244.86 140.595H1125.16V578.355H1244.86C1287.61 578.355 1323.52 568.665 1352.59 549.285C1382.23 529.905 1404.75 503.685 1420.14 470.625C1435.53 437.565 1443.22 400.23 1443.22 358.62Z" fill="#EEF7F5" fill-opacity="0.54"/>
<path d="M341.693 859.77C330.428 859.77 320.179 857.831 310.946 853.953C301.897 849.89 294.049 844.35 287.401 837.333C280.753 830.316 275.582 822.283 271.889 813.234C268.38 804.185 266.626 794.583 266.626 784.426C266.626 770.761 269.673 758.296 275.767 747.031C282.045 735.766 290.725 726.718 301.805 719.885C313.069 713.052 326.365 709.636 341.693 709.636C356.466 709.636 369.3 712.96 380.196 719.608C391.276 726.071 399.401 734.751 404.572 745.646L374.933 755.064C371.609 748.97 366.9 744.261 360.806 740.937C354.896 737.428 348.341 735.674 341.139 735.674C333.013 735.674 325.627 737.798 318.979 742.045C312.515 746.108 307.345 751.832 303.467 759.219C299.773 766.421 297.927 774.823 297.927 784.426C297.927 793.659 299.866 802.062 303.744 809.633C307.622 817.02 312.792 822.929 319.256 827.361C325.904 831.608 333.29 833.732 341.416 833.732C346.402 833.732 351.203 832.901 355.82 831.239C360.621 829.392 364.776 826.992 368.285 824.037C371.793 820.898 374.286 817.481 375.764 813.788L405.68 822.652C402.54 829.854 397.831 836.225 391.553 841.765C385.459 847.305 378.164 851.737 369.67 855.061C361.36 858.2 352.034 859.77 341.693 859.77ZM495.071 859.77C483.806 859.77 473.557 857.831 464.324 853.953C455.275 849.89 447.427 844.443 440.779 837.61C434.131 830.593 428.96 822.652 425.267 813.788C421.758 804.739 420.004 795.137 420.004 784.98C420.004 771.315 423.143 758.85 429.422 747.585C435.7 736.136 444.472 726.995 455.737 720.162C467.001 713.145 480.205 709.636 495.348 709.636C510.49 709.636 523.509 713.145 534.405 720.162C545.485 726.995 554.072 736.043 560.166 747.308C566.26 758.573 569.307 770.668 569.307 783.595C569.307 785.811 569.214 787.935 569.03 789.966C568.845 791.813 568.66 793.382 568.476 794.675H452.413C452.967 803.17 455.275 810.649 459.338 817.112C463.585 823.391 468.94 828.377 475.404 832.07C481.867 835.579 488.792 837.333 496.179 837.333C504.304 837.333 511.968 835.302 519.17 831.239C526.556 827.176 531.542 821.821 534.128 815.173L560.166 822.652C557.026 829.669 552.225 836.04 545.762 841.765C539.483 847.305 532.004 851.737 523.325 855.061C514.645 858.2 505.227 859.77 495.071 859.77ZM451.582 774.454H539.114C538.56 766.144 536.159 758.85 531.912 752.571C527.849 746.108 522.586 741.122 516.123 737.613C509.844 733.92 502.827 732.073 495.071 732.073C487.499 732.073 480.482 733.92 474.019 737.613C467.74 741.122 462.569 746.108 458.507 752.571C454.444 758.85 452.136 766.144 451.582 774.454ZM724.074 857H693.604V775.839C693.604 762.358 691.388 752.479 686.956 746.2C682.709 739.921 676.338 736.782 667.843 736.782C661.934 736.782 656.024 738.259 650.115 741.214C644.39 744.169 639.22 748.231 634.603 753.402C629.986 758.388 626.662 764.205 624.631 770.853V857H594.161V712.129H621.861V741.214C625.554 734.751 630.356 729.211 636.265 724.594C642.359 719.793 649.192 716.099 656.763 713.514C664.334 710.929 672.367 709.636 680.862 709.636C689.541 709.636 696.651 711.206 702.191 714.345C707.916 717.484 712.348 721.824 715.487 727.364C718.811 732.719 721.027 738.998 722.135 746.2C723.428 753.217 724.074 760.696 724.074 768.637V857ZM838.966 849.521C836.381 850.814 833.149 852.199 829.271 853.676C825.393 855.153 820.961 856.446 815.975 857.554C811.174 858.662 806.188 859.216 801.017 859.216C794.738 859.216 788.921 858.108 783.566 855.892C778.211 853.676 773.871 850.167 770.547 845.366C767.408 840.38 765.838 834.009 765.838 826.253V735.674H746.725V712.129H765.838V664.485H796.308V712.129H827.886V735.674H796.308V816.558C796.677 821.544 798.247 825.237 801.017 827.638C803.972 830.039 807.573 831.239 811.82 831.239C816.067 831.239 820.13 830.5 824.008 829.023C827.886 827.546 830.748 826.345 832.595 825.422L838.966 849.521ZM923.826 859.77C912.561 859.77 902.312 857.831 893.079 853.953C884.03 849.89 876.182 844.443 869.534 837.61C862.886 830.593 857.715 822.652 854.022 813.788C850.513 804.739 848.759 795.137 848.759 784.98C848.759 771.315 851.898 758.85 858.177 747.585C864.455 736.136 873.227 726.995 884.492 720.162C895.756 713.145 908.96 709.636 924.103 709.636C939.245 709.636 952.264 713.145 963.16 720.162C974.24 726.995 982.827 736.043 988.921 747.308C995.015 758.573 998.062 770.668 998.062 783.595C998.062 785.811 997.969 787.935 997.785 789.966C997.6 791.813 997.415 793.382 997.231 794.675H881.168C881.722 803.17 884.03 810.649 888.093 817.112C892.34 823.391 897.695 828.377 904.159 832.07C910.622 835.579 917.547 837.333 924.934 837.333C933.059 837.333 940.723 835.302 947.925 831.239C955.311 827.176 960.297 821.821 962.883 815.173L988.921 822.652C985.781 829.669 980.98 836.04 974.517 841.765C968.238 847.305 960.759 851.737 952.08 855.061C943.4 858.2 933.982 859.77 923.826 859.77ZM880.337 774.454H967.869C967.315 766.144 964.914 758.85 960.667 752.571C956.604 746.108 951.341 741.122 944.878 737.613C938.599 733.92 931.582 732.073 923.826 732.073C916.254 732.073 909.237 733.92 902.774 737.613C896.495 741.122 891.324 746.108 887.262 752.571C883.199 758.85 880.891 766.144 880.337 774.454ZM1104.35 738.444C1092.54 738.629 1082.01 741.306 1072.78 746.477C1063.73 751.648 1057.26 758.942 1053.39 768.36V857H1022.92V712.129H1051.17V744.538C1056.16 734.566 1062.71 726.625 1070.84 720.716C1078.96 714.622 1087.55 711.298 1096.6 710.744C1098.44 710.744 1099.92 710.744 1101.03 710.744C1102.32 710.744 1103.43 710.836 1104.35 711.021V738.444Z" fill="#EEF7F5" fill-opacity="0.54"/>
</svg>
