<svg width="374" height="573" viewBox="0 0 374 573" fill="none" xmlns="http://www.w3.org/2000/svg">
<path d="M369.5 447.55C369.5 453.65 368.45 459.2 366.35 464.2C364.15 469.1 361.15 473.35 357.35 476.95C353.55 480.55 349.2 483.35 344.3 485.35C339.4 487.25 334.2 488.2 328.7 488.2C321.3 488.2 314.55 486.55 308.45 483.25C302.35 479.85 297.45 475.15 293.75 469.15C290.05 463.05 288.2 455.85 288.2 447.55C288.2 439.55 290 432.6 293.6 426.7C297.1 420.7 301.8 416.3 307.7 413.5L312.8 429.55C309.5 431.35 306.95 433.9 305.15 437.2C303.25 440.4 302.3 443.95 302.3 447.85C302.3 452.25 303.45 456.25 305.75 459.85C307.95 463.35 311.05 466.15 315.05 468.25C318.95 470.25 323.5 471.25 328.7 471.25C333.7 471.25 338.25 470.2 342.35 468.1C346.35 466 349.55 463.2 351.95 459.7C354.25 456.1 355.4 452.1 355.4 447.7C355.4 445 354.95 442.4 354.05 439.9C353.05 437.3 351.75 435.05 350.15 433.15C348.45 431.25 346.6 429.9 344.6 429.1L349.4 412.9C353.3 414.6 356.75 417.15 359.75 420.55C362.75 423.85 365.15 427.8 366.95 432.4C368.65 436.9 369.5 441.95 369.5 447.55ZM369.5 364.493C369.5 370.593 368.45 376.143 366.35 381.143C364.15 386.043 361.2 390.293 357.5 393.893C353.7 397.493 349.4 400.293 344.6 402.293C339.7 404.193 334.5 405.143 329 405.143C321.6 405.143 314.85 403.443 308.75 400.043C302.55 396.643 297.6 391.893 293.9 385.793C290.1 379.693 288.2 372.543 288.2 364.343C288.2 356.143 290.1 349.093 293.9 343.193C297.6 337.193 302.5 332.543 308.6 329.243C314.7 325.943 321.25 324.293 328.25 324.293C329.45 324.293 330.6 324.343 331.7 324.443C332.7 324.543 333.55 324.643 334.25 324.743L334.25 387.593C338.85 387.293 342.9 386.043 346.4 383.843C349.8 381.543 352.5 378.643 354.5 375.143C356.4 371.643 357.35 367.893 357.35 363.893C357.35 359.493 356.25 355.343 354.05 351.443C351.85 347.443 348.95 344.743 345.35 343.343L349.4 329.243C353.2 330.943 356.65 333.543 359.75 337.043C362.75 340.443 365.15 344.493 366.95 349.193C368.65 353.893 369.5 358.993 369.5 364.493ZM323.3 388.043L323.3 340.643C318.8 340.943 314.85 342.243 311.45 344.543C307.95 346.743 305.25 349.593 303.35 353.093C301.35 356.493 300.35 360.293 300.35 364.493C300.35 368.593 301.35 372.393 303.35 375.893C305.25 379.293 307.95 382.093 311.45 384.293C314.85 386.493 318.8 387.743 323.3 388.043ZM368 240.484L368 256.984L324.05 256.984C316.75 256.984 311.4 258.184 308 260.584C304.6 262.884 302.9 266.334 302.9 270.934C302.9 274.134 303.7 277.334 305.3 280.534C306.9 283.634 309.1 286.434 311.9 288.934C314.6 291.434 317.75 293.234 321.35 294.334L368 294.334L368 310.834L289.55 310.834L289.55 295.834L305.3 295.834C301.8 293.834 298.8 291.234 296.3 288.034C293.7 284.734 291.7 281.034 290.3 276.934C288.9 272.834 288.2 268.484 288.2 263.884C288.2 259.184 289.05 255.334 290.75 252.334C292.45 249.234 294.8 246.834 297.8 245.134C300.7 243.334 304.1 242.134 308 241.534C311.8 240.834 315.85 240.484 320.15 240.484L368 240.484ZM363.95 178.268C364.65 179.668 365.4 181.418 366.2 183.518C367 185.618 367.7 188.018 368.3 190.718C368.9 193.318 369.2 196.018 369.2 198.818C369.2 202.218 368.6 205.368 367.4 208.268C366.2 211.168 364.3 213.518 361.7 215.318C359 217.018 355.55 217.868 351.35 217.868L302.3 217.868L302.3 228.218L289.55 228.218L289.55 217.868L263.75 217.868L263.75 201.368L289.55 201.368L289.55 184.268L302.3 184.268L302.3 201.368L346.1 201.368C348.8 201.168 350.8 200.318 352.1 198.818C353.4 197.218 354.05 195.268 354.05 192.968C354.05 190.668 353.65 188.468 352.85 186.368C352.05 184.268 351.4 182.718 350.9 181.718L363.95 178.268ZM369.5 132.316C369.5 138.416 368.45 143.966 366.35 148.966C364.15 153.866 361.2 158.116 357.5 161.716C353.7 165.316 349.4 168.116 344.6 170.116C339.7 172.016 334.5 172.966 329 172.966C321.6 172.966 314.85 171.266 308.75 167.866C302.55 164.466 297.6 159.716 293.9 153.616C290.1 147.516 288.2 140.366 288.2 132.166C288.2 123.966 290.1 116.916 293.9 111.016C297.6 105.016 302.5 100.366 308.6 97.0656C314.7 93.7656 321.25 92.1156 328.25 92.1156C329.45 92.1156 330.6 92.1656 331.7 92.2656C332.7 92.3656 333.55 92.4656 334.25 92.5656L334.25 155.416C338.85 155.116 342.9 153.866 346.4 151.666C349.8 149.366 352.5 146.466 354.5 142.966C356.4 139.466 357.35 135.716 357.35 131.716C357.35 127.316 356.25 123.166 354.05 119.266C351.85 115.266 348.95 112.566 345.35 111.166L349.4 97.0656C353.2 98.7656 356.65 101.366 359.75 104.866C362.75 108.266 365.15 112.316 366.95 117.016C368.65 121.716 369.5 126.816 369.5 132.316ZM323.3 155.866L323.3 108.466C318.8 108.766 314.85 110.066 311.45 112.366C307.95 114.566 305.25 117.416 303.35 120.916C301.35 124.316 300.35 128.116 300.35 132.316C300.35 136.416 301.35 140.216 303.35 143.716C305.25 147.116 307.95 149.916 311.45 152.116C314.85 154.316 318.8 155.566 323.3 155.866ZM303.8 34.5566C303.9 40.9566 305.35 46.6566 308.15 51.6566C310.95 56.5566 314.9 60.0566 320 62.1566L368 62.1566L368 78.6566L289.55 78.6566L289.55 63.3566L307.1 63.3566C301.7 60.6566 297.4 57.1066 294.2 52.7066C290.9 48.3066 289.1 43.6566 288.8 38.7566C288.8 37.7566 288.8 36.9566 288.8 36.3566C288.8 35.6566 288.85 35.0566 288.95 34.5566L303.8 34.5566Z" fill="#ECEFEE" fill-opacity="0.42"/>
<path d="M257 545L8.49999 545L8.49998 436.85C8.49998 425.65 10.8333 415.383 15.5 406.05C20.1666 396.717 26.35 388.667 34.05 381.9C41.75 374.9 50.3833 369.533 59.95 365.8C69.5167 361.833 79.3167 359.85 89.35 359.85C100.317 359.85 110.817 361.833 120.85 365.8C130.883 369.767 139.517 375.483 146.75 382.95C153.983 390.183 159.233 398.7 162.5 408.5L257 350.05L257 394.15L170.55 448.05L170.55 505.8L257 505.8L257 545ZM135.9 505.8L135.9 437.2C135.9 429.967 133.8 423.55 129.6 417.95C125.4 412.35 119.8 407.917 112.8 404.65C105.567 401.383 97.75 399.75 89.35 399.75C80.7166 399.75 73.0166 401.617 66.25 405.35C59.25 409.083 53.65 413.983 49.45 420.05C45.25 425.883 43.15 432.3 43.15 439.3L43.15 505.8L135.9 505.8Z" fill="#ECEFEE" fill-opacity="0.42"/>
<path d="M257 171.2L130.65 290.55C119.917 300.583 110.817 308.517 103.35 314.35C95.8833 320.183 89 324.383 82.7 326.95C76.4 329.517 69.8667 330.8 63.1 330.8C51.6667 330.8 41.6333 328 33 322.4C24.3666 316.567 17.6 308.633 12.7 298.6C7.79998 288.567 5.34998 277.367 5.34997 265C5.34997 253.567 7.44997 243.067 11.65 233.5C15.6166 223.933 21.5666 216.233 29.5 210.4C37.2 204.567 46.7666 201.65 58.2 201.65C68.9333 201.65 78.6166 204.45 87.25 210.05C95.8833 215.65 103.817 223.117 111.05 232.45C118.283 241.783 125.4 252.167 132.4 263.6C138.233 272.467 144.067 280.517 149.9 287.75C155.5 294.983 161.567 300.7 168.1 304.9C174.4 308.867 181.517 310.85 189.45 310.85C197.383 310.85 204.5 308.633 210.8 304.2C216.867 299.767 221.65 293.817 225.15 286.35C228.417 278.883 230.05 270.717 230.05 261.85C230.05 250.883 227.483 240.5 222.35 230.7C217.217 220.9 209.983 212.15 200.65 204.45C191.083 196.75 179.883 190.8 167.05 186.6C154.217 182.167 140.217 179.95 125.05 179.95L125.05 148.45C145.583 148.45 164.133 151.717 180.7 158.25C197.267 164.55 211.5 173.183 223.4 184.15C235.3 194.883 244.517 207.367 251.05 221.6C257.35 235.6 260.5 250.417 260.5 266.05C260.5 282.15 257.35 296.383 251.05 308.75C244.517 321.117 235.883 330.8 225.15 337.8C214.417 344.567 202.4 347.95 189.1 347.95C176.033 347.95 164.717 345.033 155.15 339.2C145.35 333.133 136.717 325.433 129.25 316.1C121.55 306.533 114.667 296.967 108.6 287.4C102.067 277.133 96.35 268.267 91.45 260.8C86.3166 253.333 81.1833 247.5 76.05 243.3C70.6833 239.1 64.9666 237 58.9 237C51.4333 237 45.4833 239.683 41.05 245.05C36.3833 250.183 34.05 256.833 34.05 265C34.05 271.067 35.3333 276.433 37.9 281.1C40.4667 285.533 43.85 289.033 48.05 291.6C52.25 294.167 56.9166 295.45 62.05 295.45C65.55 295.45 69.1666 294.517 72.9 292.65C76.4 290.783 81.0666 287.283 86.9 282.15C92.5 277.017 100.2 269.9 110 260.8L257 120.45L257 171.2Z" fill="#ECEFEE" fill-opacity="0.42"/>
<path d="M257 114L8.49998 114L8.49997 25.8C8.49997 -1.03334 14.1 -23.4333 25.3 -41.4C36.2666 -59.3667 51.2 -72.7833 70.1 -81.65C88.7666 -90.75 109.533 -95.3 132.4 -95.3C157.6 -95.3 179.533 -90.2834 198.2 -80.25C216.867 -70.45 231.333 -56.45 241.6 -38.25C251.867 -20.05 257 1.29999 257 25.8L257 114ZM132.4 -55.4C114.9 -55.4 99.5 -52.1333 86.2 -45.6C72.6666 -39.3 62.1666 -30.0833 54.7 -17.95C47 -6.05001 43.15 8.53333 43.15 25.8L43.15 74.8L222.35 74.8L222.35 25.8C222.35 8.29999 218.383 -6.40001 210.45 -18.3C202.517 -30.4334 191.783 -39.65 178.25 -45.95C164.717 -52.25 149.433 -55.4 132.4 -55.4Z" fill="#ECEFEE" fill-opacity="0.42"/>
</svg>
