<svg width="243" height="202" viewBox="0 0 243 202" fill="none" xmlns="http://www.w3.org/2000/svg">
<path d="M28.4844 35.4848L59.4426 17.4056L90.5788 35.1766L90.7567 71.0268L59.7985 89.106L28.6624 71.335L28.4844 35.4848Z" stroke="#31D8B0" stroke-opacity="0.29" stroke-width="1.2"/>
<path d="M78.1142 50.0148L113.371 29.4253L148.83 49.6638L149.033 90.4918L113.776 111.081L78.3169 90.8428L78.1142 50.0148Z" stroke="#31D8B0" stroke-opacity="0.29" stroke-width="1.2"/>
<path d="M6.48442 108.485L37.4426 90.4056L68.5788 108.177L68.7567 144.027L37.7985 162.106L6.66236 144.335L6.48442 108.485Z" stroke="#31D8B0" stroke-opacity="0.29" stroke-width="1.2"/>
<path d="M158.627 12.5525L177.83 1.33791L197.144 12.3613L197.255 34.5994L178.051 45.814L158.737 34.7906L158.627 12.5525Z" stroke="#31D8B0" stroke-opacity="0.29" stroke-width="1.2"/>
<path d="M157.623 103.984L196.35 81.368L235.299 103.599L235.522 148.445L196.795 171.061L157.845 148.831L157.623 103.984Z" stroke="#31D8B0" stroke-opacity="0.29" stroke-width="1.2"/>
<mask id="path-6-inside-1_248_521" fill="white">
<path d="M183.463 90.3625C189.16 91.6088 196.722 92.2607 196.722 92.2607L192.546 96.1797C191.469 97.1897 190.858 98.6001 190.858 100.076L190.061 106.299V111.245L189.502 118.903C189.502 120.995 188.963 123.051 187.935 124.874L187.029 126.481L186.588 127.175C186.167 127.836 185.438 128.236 184.654 128.236C184.031 128.236 183.435 127.983 183.002 127.534L181.941 126.431C181.631 126.109 181.094 126.21 180.922 126.622L180.732 127.077C180.49 127.657 179.759 127.843 179.255 127.467C178.699 127.051 178.102 126.632 177.775 126.481C177.383 126.3 176.84 125.587 176.431 124.966C176.151 124.542 175.746 124.211 175.261 124.061L172.318 123.156C172.127 123.097 171.929 123.068 171.73 123.068H168.747C168.293 123.068 167.848 123.218 167.525 123.537C166.978 124.077 166.29 124.898 165.976 125.75C165.803 126.22 165.549 126.947 165.281 127.728C164.572 129.791 164.673 131.999 164.673 134.18V139.008C164.673 139.358 164.378 140.251 163.982 141.289C162.995 143.875 161.838 146.509 161.838 149.278C161.838 149.584 163.294 150.428 163.37 150.811C163.447 151.194 165.516 153.416 166.513 154.183C167.509 154.949 170.038 155.639 171.571 156.635C173.104 157.632 173.333 157.708 175.096 159.318C176.506 160.605 176.603 162.051 176.476 162.613V167.901L175.862 174.952L176.476 178.401L176.954 180.795C177.093 181.486 177.046 182.2 176.819 182.867L175.862 185.681V187.183C175.862 187.857 175.692 188.52 175.367 189.111L174.176 191.276V194.25C174.176 194.672 173.911 195.049 173.513 195.191L172.194 195.663C172.086 195.701 171.972 195.721 171.857 195.721H170.728C170.421 195.721 169.808 194.341 168.888 193.268C167.969 192.195 167.739 191.276 167.509 190.28C167.279 189.283 167.662 188.747 168.199 188.21C168.628 187.781 170.268 186.754 171.034 186.294V182.999C171.213 181.338 171.571 177.741 171.571 176.638C171.571 175.258 171.494 173.266 171.571 172.883C171.647 172.499 169.118 165.985 168.888 165.525C167.92 163.589 165.379 163.039 163.232 162.76C162.565 162.674 162.027 162.613 161.838 162.613C161.479 162.613 159.51 162.011 157.82 161.468C156.724 161.116 155.705 160.561 154.803 159.846L152.847 158.297C152.366 157.916 151.771 157.708 151.157 157.708C150.263 157.708 149.425 158.147 148.917 158.883L147.81 160.488C147.608 160.78 147.43 161.089 147.279 161.41L146.517 163.034C146.002 164.131 145.579 165.269 145.253 166.436L144.671 168.514L142.678 173.879L140.379 178.401L139.402 181.657C138.983 183.055 138.769 184.507 138.769 185.967V189.207L140.379 191.276L141.14 192.1C141.841 192.86 142.29 193.819 142.424 194.845L142.628 196.409C142.66 196.656 142.599 196.907 142.455 197.112L141.904 197.9C141.717 198.167 141.411 198.327 141.084 198.327H134.511C133.844 198.327 133.364 197.685 133.552 197.044L133.941 195.721L134.528 193.618C134.744 192.844 134.699 192.021 134.401 191.276L133.175 187.521L134.861 182.999C135.167 181.594 135.827 178.63 136.01 178.017C136.124 177.638 136.44 175.75 136.743 173.846C137.079 171.729 136.717 169.521 137.237 167.441C137.359 166.951 138.31 164.018 138.769 162.613L139.125 160.622C139.648 157.693 139.527 154.685 138.769 151.807H130.722L130.952 152.993C131.071 153.61 130.599 154.183 129.97 154.183H120.759L119.603 155.765C119.415 156.023 119.115 156.175 118.796 156.175H115.935C115.383 156.175 114.935 155.728 114.935 155.175V151.807H109.724C108.114 151.603 104.788 151.133 104.359 150.887C103.93 150.642 100.042 149.252 98.1511 148.588L96.2134 147.731C94.884 147.143 93.4003 147 91.9831 147.323C90.5642 147.647 89.2879 148.421 88.3446 149.529L80.6009 158.628L77.3821 163.226V163.677C77.3821 165.637 77.9272 167.558 78.9564 169.226C79.3871 169.924 79.8975 170.57 80.4775 171.15L83.7431 174.415L87.6881 178.933C88.2081 179.529 88.4947 180.292 88.4947 181.083V188.364V191.962C88.4947 192.256 88.3652 192.535 88.1406 192.725L86.9408 193.74C86.6691 193.97 86.2958 194.038 85.9604 193.919L84.5271 193.411C84.271 193.32 84.0629 193.129 83.9507 192.881L82.144 188.894C81.9955 188.566 82.0345 188.184 82.2461 187.893L83.7431 185.834C83.9474 185.272 84.3868 184.072 84.5095 183.765C84.6321 183.459 83.5387 183.127 82.9767 182.999V181.083L81.9038 179.397L79.9979 177.264C79.1255 176.288 78.1432 175.416 77.0706 174.665L74.0866 172.576L71.426 170.321C70.1916 169.275 69.0937 168.07 68.2711 166.676C67.7647 165.818 67.3424 165.021 67.3424 164.759C67.3424 164.268 67.9045 162.051 68.1855 161.004L67.9491 161.189C66.6806 162.186 65.5349 163.33 64.536 164.597C63.4482 165.976 62.5433 167.491 61.8439 169.103L61.1347 170.737L60.9064 171.143C59.685 173.314 58.77 175.644 58.1875 178.066L57.6094 180.47L56.9963 182.999L55.9822 186.875C55.8001 187.571 55.8091 188.303 56.0082 188.994L56.7253 191.484C56.902 192.098 57.2564 192.645 57.7438 193.058C57.9092 193.198 58.0602 193.354 58.1943 193.524L60.92 196.981C61.0591 197.158 61.1347 197.376 61.1347 197.6V199.469C61.1347 199.888 60.874 200.262 60.4814 200.407L57.8923 201.364C57.7078 201.432 57.5073 201.445 57.3158 201.399L53.1075 200.406C52.5535 200.275 52.2203 199.709 52.3748 199.161L53.1198 196.52C53.2915 195.911 53.165 195.256 52.7785 194.755L51.6316 193.268V186.294L52.4746 177.174V173.487C52.4746 172.172 52.6704 170.864 53.0555 169.606C53.4326 168.374 53.9872 167.203 54.7019 166.131L56.0796 164.065C56.6894 163.15 57.2142 162.181 57.6473 161.171L58.3758 159.471L61.5398 153.934C61.6761 153.695 61.7478 153.425 61.7478 153.15V147.725C61.7478 147.144 61.5442 146.581 61.1723 146.135C61.0455 145.983 60.9374 145.816 60.8502 145.638L59.9707 143.844C59.369 142.616 58.8856 141.329 58.6795 139.978C58.4841 138.696 58.3758 137.522 58.3758 137.322C58.3758 137.119 58.1055 134.753 57.9238 132.58C57.7676 130.712 58.2007 128.863 59.042 127.188L59.3361 126.602C60.0215 125.237 61.0296 124.06 62.2729 123.173C62.9418 122.696 63.5452 122.133 64.0675 121.499L65.4265 119.849L65.3401 119.811C63.6939 119.084 61.8764 118.837 60.0958 119.096C59.1084 119.239 58.1496 119.536 57.2539 119.976L56.2725 120.458C55.0451 121.06 54.0222 122.011 53.3315 123.191C52.8176 124.069 52.5022 125.049 52.4077 126.062L52.2775 127.456C52.1043 129.312 52.3239 131.184 52.9219 132.95L53.6242 135.023L55.022 139.916C55.3157 140.944 55.5177 141.996 55.6254 143.06C55.9217 145.986 55.4995 148.94 54.3953 151.666L54.2237 152.09C53.8246 153.075 53.3474 154.026 52.7965 154.935L51.5559 156.982C50.8949 158.073 50.4036 159.258 50.0987 160.496L49.657 162.291C49.4409 163.169 49.2877 164.061 49.1985 164.961L48.8794 168.181C48.6281 170.717 47.4596 173.074 45.5933 174.809C44.9761 175.383 44.292 175.881 43.5559 176.291L37.9899 179.397C39.3131 178.43 40.5087 177.3 41.5517 176.036C42.7924 174.532 44.1362 172.909 44.4276 172.576C44.6737 172.295 44.8308 171.059 44.9248 169.747C45.0516 167.978 44.6676 166.219 43.9474 164.598C43.2534 163.037 42.8948 161.347 42.8948 159.638V155.959C42.8948 155.236 42.9497 154.514 43.059 153.799L43.2614 152.475C43.6794 149.742 43.7403 146.966 43.4425 144.218L42.8948 139.162C42.1891 135.885 42.2524 132.49 43.0797 129.242L43.5452 127.415C43.7746 126.514 44.1311 125.65 44.604 124.85L46.3385 121.915C47.3503 120.202 48.7396 118.744 50.4004 117.649C52.9771 115.952 56.0713 115.221 59.1353 115.585L60.3797 115.733L66.1753 116.747H70.0874L73.3168 116.182C75.0244 115.883 76.7547 115.733 78.4882 115.733H80.7609C82.2401 115.733 83.7172 115.842 85.1803 116.06L87.595 116.42C89.0581 116.638 90.5352 116.747 92.0144 116.747H97.18C99.124 116.747 100.983 115.949 102.322 114.54C102.757 114.082 103.129 113.567 103.428 113.011L106.554 107.191C106.968 106.419 107.253 105.585 107.397 104.721L108.251 99.5986C108.405 98.6743 108.395 97.7301 108.222 96.8091L107.317 91.9773C107.225 91.4911 107.179 90.9976 107.179 90.503V84.002V80.6695V79.9126C107.179 78.5751 107.848 77.3262 108.961 76.5843L109.238 76.3994C109.602 76.1569 109.923 75.8564 110.19 75.5098L110.699 74.8481C111.047 74.395 111.236 73.8395 111.236 73.2679V73.0494C111.236 72.5454 111.049 72.0594 110.71 71.6864C110.116 71.0337 109.788 70.1832 109.788 69.3012V68.4986V66.1806C109.788 65.7805 110.112 65.4562 110.512 65.4562C110.912 65.4562 111.236 65.1318 111.236 64.7317V64.1796C111.236 63.881 111.132 63.5918 110.941 63.3624L110.252 62.5364C109.952 62.1759 109.788 61.7216 109.788 61.2524C109.788 60.6867 109.955 60.1337 110.269 59.663L110.453 59.3862C110.96 58.6264 111.713 58.0647 112.586 57.7962L113.885 57.3964C114.627 57.1683 115.398 57.0523 116.174 57.0523H117.304C118.084 57.0523 118.858 57.178 119.597 57.4245L120.642 57.7726C121.495 58.057 122.229 58.6177 122.728 59.366C123.171 60.0303 123.407 60.8109 123.407 61.6093V63.2964C123.407 63.5648 123.519 63.821 123.717 64.003L125.291 65.4562L123.838 66.4619C123.568 66.6487 123.407 66.9559 123.407 67.2841V69.3347C123.407 69.5449 123.473 69.7497 123.597 69.9201L124.623 71.3411C124.977 71.8311 124.818 72.5205 124.286 72.807L123.933 72.9971C123.609 73.1716 123.407 73.5097 123.407 73.8776V76.0332H121.061C120.276 76.0332 119.64 76.6694 119.64 77.4541C119.64 77.6633 119.686 77.8699 119.775 78.0592L121.673 82.0912C121.861 82.4908 121.958 82.927 121.958 83.3686V92.0057C121.958 93.498 122.789 94.8661 124.113 95.5546L128.528 97.8505C128.974 98.0823 129.459 98.2281 129.959 98.2801L133.914 98.6921C135.306 98.8372 136.522 99.7002 137.118 100.967L137.52 101.822C138.104 103.061 139.35 103.852 140.72 103.852C141.692 103.852 142.622 103.452 143.289 102.745L147.926 97.8418C149.149 96.5479 150.608 95.4992 152.224 94.7521L160.744 90.8138C163.637 89.4762 166.787 88.7833 169.975 88.7833H173.209C176.66 88.7833 180.091 89.625 183.463 90.3625Z"/>
</mask>
<path d="M183.463 90.3625C189.16 91.6088 196.722 92.2607 196.722 92.2607L192.546 96.1797C191.469 97.1897 190.858 98.6001 190.858 100.076L190.061 106.299V111.245L189.502 118.903C189.502 120.995 188.963 123.051 187.935 124.874L187.029 126.481L186.588 127.175C186.167 127.836 185.438 128.236 184.654 128.236C184.031 128.236 183.435 127.983 183.002 127.534L181.941 126.431C181.631 126.109 181.094 126.21 180.922 126.622L180.732 127.077C180.49 127.657 179.759 127.843 179.255 127.467C178.699 127.051 178.102 126.632 177.775 126.481C177.383 126.3 176.84 125.587 176.431 124.966C176.151 124.542 175.746 124.211 175.261 124.061L172.318 123.156C172.127 123.097 171.929 123.068 171.73 123.068H168.747C168.293 123.068 167.848 123.218 167.525 123.537C166.978 124.077 166.29 124.898 165.976 125.75C165.803 126.22 165.549 126.947 165.281 127.728C164.572 129.791 164.673 131.999 164.673 134.18V139.008C164.673 139.358 164.378 140.251 163.982 141.289C162.995 143.875 161.838 146.509 161.838 149.278C161.838 149.584 163.294 150.428 163.37 150.811C163.447 151.194 165.516 153.416 166.513 154.183C167.509 154.949 170.038 155.639 171.571 156.635C173.104 157.632 173.333 157.708 175.096 159.318C176.506 160.605 176.603 162.051 176.476 162.613V167.901L175.862 174.952L176.476 178.401L176.954 180.795C177.093 181.486 177.046 182.2 176.819 182.867L175.862 185.681V187.183C175.862 187.857 175.692 188.52 175.367 189.111L174.176 191.276V194.25C174.176 194.672 173.911 195.049 173.513 195.191L172.194 195.663C172.086 195.701 171.972 195.721 171.857 195.721H170.728C170.421 195.721 169.808 194.341 168.888 193.268C167.969 192.195 167.739 191.276 167.509 190.28C167.279 189.283 167.662 188.747 168.199 188.21C168.628 187.781 170.268 186.754 171.034 186.294V182.999C171.213 181.338 171.571 177.741 171.571 176.638C171.571 175.258 171.494 173.266 171.571 172.883C171.647 172.499 169.118 165.985 168.888 165.525C167.92 163.589 165.379 163.039 163.232 162.76C162.565 162.674 162.027 162.613 161.838 162.613C161.479 162.613 159.51 162.011 157.82 161.468C156.724 161.116 155.705 160.561 154.803 159.846L152.847 158.297C152.366 157.916 151.771 157.708 151.157 157.708C150.263 157.708 149.425 158.147 148.917 158.883L147.81 160.488C147.608 160.78 147.43 161.089 147.279 161.41L146.517 163.034C146.002 164.131 145.579 165.269 145.253 166.436L144.671 168.514L142.678 173.879L140.379 178.401L139.402 181.657C138.983 183.055 138.769 184.507 138.769 185.967V189.207L140.379 191.276L141.14 192.1C141.841 192.86 142.29 193.819 142.424 194.845L142.628 196.409C142.66 196.656 142.599 196.907 142.455 197.112L141.904 197.9C141.717 198.167 141.411 198.327 141.084 198.327H134.511C133.844 198.327 133.364 197.685 133.552 197.044L133.941 195.721L134.528 193.618C134.744 192.844 134.699 192.021 134.401 191.276L133.175 187.521L134.861 182.999C135.167 181.594 135.827 178.63 136.01 178.017C136.124 177.638 136.44 175.75 136.743 173.846C137.079 171.729 136.717 169.521 137.237 167.441C137.359 166.951 138.31 164.018 138.769 162.613L139.125 160.622C139.648 157.693 139.527 154.685 138.769 151.807H130.722L130.952 152.993C131.071 153.61 130.599 154.183 129.97 154.183H120.759L119.603 155.765C119.415 156.023 119.115 156.175 118.796 156.175H115.935C115.383 156.175 114.935 155.728 114.935 155.175V151.807H109.724C108.114 151.603 104.788 151.133 104.359 150.887C103.93 150.642 100.042 149.252 98.1511 148.588L96.2134 147.731C94.884 147.143 93.4003 147 91.9831 147.323C90.5642 147.647 89.2879 148.421 88.3446 149.529L80.6009 158.628L77.3821 163.226V163.677C77.3821 165.637 77.9272 167.558 78.9564 169.226C79.3871 169.924 79.8975 170.57 80.4775 171.15L83.7431 174.415L87.6881 178.933C88.2081 179.529 88.4947 180.292 88.4947 181.083V188.364V191.962C88.4947 192.256 88.3652 192.535 88.1406 192.725L86.9408 193.74C86.6691 193.97 86.2958 194.038 85.9604 193.919L84.5271 193.411C84.271 193.32 84.0629 193.129 83.9507 192.881L82.144 188.894C81.9955 188.566 82.0345 188.184 82.2461 187.893L83.7431 185.834C83.9474 185.272 84.3868 184.072 84.5095 183.765C84.6321 183.459 83.5387 183.127 82.9767 182.999V181.083L81.9038 179.397L79.9979 177.264C79.1255 176.288 78.1432 175.416 77.0706 174.665L74.0866 172.576L71.426 170.321C70.1916 169.275 69.0937 168.07 68.2711 166.676C67.7647 165.818 67.3424 165.021 67.3424 164.759C67.3424 164.268 67.9045 162.051 68.1855 161.004L67.9491 161.189C66.6806 162.186 65.5349 163.33 64.536 164.597C63.4482 165.976 62.5433 167.491 61.8439 169.103L61.1347 170.737L60.9064 171.143C59.685 173.314 58.77 175.644 58.1875 178.066L57.6094 180.47L56.9963 182.999L55.9822 186.875C55.8001 187.571 55.8091 188.303 56.0082 188.994L56.7253 191.484C56.902 192.098 57.2564 192.645 57.7438 193.058C57.9092 193.198 58.0602 193.354 58.1943 193.524L60.92 196.981C61.0591 197.158 61.1347 197.376 61.1347 197.6V199.469C61.1347 199.888 60.874 200.262 60.4814 200.407L57.8923 201.364C57.7078 201.432 57.5073 201.445 57.3158 201.399L53.1075 200.406C52.5535 200.275 52.2203 199.709 52.3748 199.161L53.1198 196.52C53.2915 195.911 53.165 195.256 52.7785 194.755L51.6316 193.268V186.294L52.4746 177.174V173.487C52.4746 172.172 52.6704 170.864 53.0555 169.606C53.4326 168.374 53.9872 167.203 54.7019 166.131L56.0796 164.065C56.6894 163.15 57.2142 162.181 57.6473 161.171L58.3758 159.471L61.5398 153.934C61.6761 153.695 61.7478 153.425 61.7478 153.15V147.725C61.7478 147.144 61.5442 146.581 61.1723 146.135C61.0455 145.983 60.9374 145.816 60.8502 145.638L59.9707 143.844C59.369 142.616 58.8856 141.329 58.6795 139.978C58.4841 138.696 58.3758 137.522 58.3758 137.322C58.3758 137.119 58.1055 134.753 57.9238 132.58C57.7676 130.712 58.2007 128.863 59.042 127.188L59.3361 126.602C60.0215 125.237 61.0296 124.06 62.2729 123.173C62.9418 122.696 63.5452 122.133 64.0675 121.499L65.4265 119.849L65.3401 119.811C63.6939 119.084 61.8764 118.837 60.0958 119.096C59.1084 119.239 58.1496 119.536 57.2539 119.976L56.2725 120.458C55.0451 121.06 54.0222 122.011 53.3315 123.191C52.8176 124.069 52.5022 125.049 52.4077 126.062L52.2775 127.456C52.1043 129.312 52.3239 131.184 52.9219 132.95L53.6242 135.023L55.022 139.916C55.3157 140.944 55.5177 141.996 55.6254 143.06C55.9217 145.986 55.4995 148.94 54.3953 151.666L54.2237 152.09C53.8246 153.075 53.3474 154.026 52.7965 154.935L51.5559 156.982C50.8949 158.073 50.4036 159.258 50.0987 160.496L49.657 162.291C49.4409 163.169 49.2877 164.061 49.1985 164.961L48.8794 168.181C48.6281 170.717 47.4596 173.074 45.5933 174.809C44.9761 175.383 44.292 175.881 43.5559 176.291L37.9899 179.397C39.3131 178.43 40.5087 177.3 41.5517 176.036C42.7924 174.532 44.1362 172.909 44.4276 172.576C44.6737 172.295 44.8308 171.059 44.9248 169.747C45.0516 167.978 44.6676 166.219 43.9474 164.598C43.2534 163.037 42.8948 161.347 42.8948 159.638V155.959C42.8948 155.236 42.9497 154.514 43.059 153.799L43.2614 152.475C43.6794 149.742 43.7403 146.966 43.4425 144.218L42.8948 139.162C42.1891 135.885 42.2524 132.49 43.0797 129.242L43.5452 127.415C43.7746 126.514 44.1311 125.65 44.604 124.85L46.3385 121.915C47.3503 120.202 48.7396 118.744 50.4004 117.649C52.9771 115.952 56.0713 115.221 59.1353 115.585L60.3797 115.733L66.1753 116.747H70.0874L73.3168 116.182C75.0244 115.883 76.7547 115.733 78.4882 115.733H80.7609C82.2401 115.733 83.7172 115.842 85.1803 116.06L87.595 116.42C89.0581 116.638 90.5352 116.747 92.0144 116.747H97.18C99.124 116.747 100.983 115.949 102.322 114.54C102.757 114.082 103.129 113.567 103.428 113.011L106.554 107.191C106.968 106.419 107.253 105.585 107.397 104.721L108.251 99.5986C108.405 98.6743 108.395 97.7301 108.222 96.8091L107.317 91.9773C107.225 91.4911 107.179 90.9976 107.179 90.503V84.002V80.6695V79.9126C107.179 78.5751 107.848 77.3262 108.961 76.5843L109.238 76.3994C109.602 76.1569 109.923 75.8564 110.19 75.5098L110.699 74.8481C111.047 74.395 111.236 73.8395 111.236 73.2679V73.0494C111.236 72.5454 111.049 72.0594 110.71 71.6864C110.116 71.0337 109.788 70.1832 109.788 69.3012V68.4986V66.1806C109.788 65.7805 110.112 65.4562 110.512 65.4562C110.912 65.4562 111.236 65.1318 111.236 64.7317V64.1796C111.236 63.881 111.132 63.5918 110.941 63.3624L110.252 62.5364C109.952 62.1759 109.788 61.7216 109.788 61.2524C109.788 60.6867 109.955 60.1337 110.269 59.663L110.453 59.3862C110.96 58.6264 111.713 58.0647 112.586 57.7962L113.885 57.3964C114.627 57.1683 115.398 57.0523 116.174 57.0523H117.304C118.084 57.0523 118.858 57.178 119.597 57.4245L120.642 57.7726C121.495 58.057 122.229 58.6177 122.728 59.366C123.171 60.0303 123.407 60.8109 123.407 61.6093V63.2964C123.407 63.5648 123.519 63.821 123.717 64.003L125.291 65.4562L123.838 66.4619C123.568 66.6487 123.407 66.9559 123.407 67.2841V69.3347C123.407 69.5449 123.473 69.7497 123.597 69.9201L124.623 71.3411C124.977 71.8311 124.818 72.5205 124.286 72.807L123.933 72.9971C123.609 73.1716 123.407 73.5097 123.407 73.8776V76.0332H121.061C120.276 76.0332 119.64 76.6694 119.64 77.4541C119.64 77.6633 119.686 77.8699 119.775 78.0592L121.673 82.0912C121.861 82.4908 121.958 82.927 121.958 83.3686V92.0057C121.958 93.498 122.789 94.8661 124.113 95.5546L128.528 97.8505C128.974 98.0823 129.459 98.2281 129.959 98.2801L133.914 98.6921C135.306 98.8372 136.522 99.7002 137.118 100.967L137.52 101.822C138.104 103.061 139.35 103.852 140.72 103.852C141.692 103.852 142.622 103.452 143.289 102.745L147.926 97.8418C149.149 96.5479 150.608 95.4992 152.224 94.7521L160.744 90.8138C163.637 89.4762 166.787 88.7833 169.975 88.7833H173.209C176.66 88.7833 180.091 89.625 183.463 90.3625Z" stroke="black" stroke-width="74" mask="url(#path-6-inside-1_248_521)"/>
</svg>
