<?xml version="1.0" standalone="no"?>
<!DOCTYPE svg PUBLIC "-//W3C//DTD SVG 20010904//EN"
 "http://www.w3.org/TR/2001/REC-SVG-20010904/DTD/svg10.dtd">
<svg version="1.0" xmlns="http://www.w3.org/2000/svg"
 width="800.000000pt" height="407.000000pt" viewBox="0 0 800.000000 407.000000"
 preserveAspectRatio="xMidYMid meet">

<g transform="translate(0.000000,407.000000) scale(0.100000,-0.100000)"
fill="#000000" stroke="none">
<path d="M0 2035 l0 -2035 2051 0 c1172 0 2048 4 2045 9 -3 5 -26 14 -51 20
-26 6 -49 19 -55 31 -6 11 -19 20 -29 20 -11 0 -50 14 -88 31 -147 66 -314
112 -405 111 -42 0 -62 4 -79 18 -12 11 -25 17 -29 15 -5 -3 -11 1 -13 7 -4
10 -8 9 -16 -2 -9 -13 -11 -13 -11 1 0 20 -41 39 -102 46 -57 7 -65 -10 -13
-28 24 -9 31 -16 22 -22 -8 -6 -4 -7 11 -4 13 3 22 3 19 0 -12 -11 15 -59 46
-81 29 -21 29 -23 7 -17 -14 4 -45 19 -70 34 -51 31 -82 45 -92 43 -5 -1 -8 3
-8 8 0 6 -4 10 -9 10 -19 0 -100 55 -101 68 0 32 318 -7 461 -57 l56 -19 29
24 c16 13 21 21 12 18 -22 -8 -23 0 -1 32 16 24 16 26 -3 22 -14 -2 -19 3 -18
19 0 19 -2 21 -15 10 -9 -6 -19 -16 -23 -22 -11 -15 -161 43 -154 60 2 6 -51
10 -151 10 -158 0 -157 0 -178 40 -3 6 -7 5 -11 -2 -3 -7 -11 -13 -18 -13 -8
0 -25 -9 -39 -20 -14 -11 -35 -20 -47 -20 -23 0 -81 39 -117 78 -12 13 -26 21
-31 18 -10 -6 -72 30 -72 43 0 5 5 11 11 13 5 2 10 24 11 48 0 25 5 48 11 52
21 13 -3 22 -68 26 -63 4 -67 3 -110 -32 l-45 -37 -22 26 c-13 14 -52 41 -88
59 l-65 34 -7 53 c-13 110 -21 496 -10 503 6 4 66 17 134 30 108 20 134 22
213 13 50 -5 95 -14 102 -19 7 -6 9 -23 6 -44 -3 -19 -3 -34 0 -34 4 0 289
308 332 359 11 14 15 21 9 18 -13 -8 -102 20 -124 39 -23 19 -109 51 -160 58
-124 18 -177 30 -198 43 -26 16 -32 13 -292 -124 -58 -31 -100 -51 -95 -46 6
6 80 48 165 93 171 90 229 140 230 196 0 17 6 31 13 32 6 1 32 6 57 12 45 10
111 20 160 23 14 1 50 15 80 31 l55 29 -32 66 c-18 36 -40 96 -50 134 -10 37
-22 67 -28 67 -5 0 -77 -14 -160 -30 -82 -17 -174 -35 -203 -41 -49 -10 -64
-29 -21 -29 10 0 19 -5 19 -12 0 -6 -3 -8 -7 -5 -3 4 -12 2 -19 -4 -15 -12
-37 -3 -29 12 4 5 -2 9 -12 9 -10 0 -29 3 -42 7 -15 4 -22 2 -18 -4 4 -7 -8
-9 -33 -7 -34 3 -38 1 -28 -10 7 -8 17 -11 22 -8 5 3 6 0 2 -6 -3 -5 -2 -12 3
-14 5 -1 3 -9 -5 -16 -12 -11 -14 -10 -14 6 0 10 -8 26 -17 35 -16 14 -28 13
-133 -8 -63 -13 -124 -24 -135 -24 -11 1 9 7 45 15 115 24 345 76 360 80 13 5
13 6 0 14 -21 13 -33 12 -24 -2 5 -8 0 -9 -17 -4 -13 4 -36 10 -51 13 -19 4
-28 11 -28 24 0 21 -21 25 -51 9 -15 -9 -19 -7 -19 6 0 10 5 14 15 10 8 -3 15
-1 15 4 0 6 -9 10 -19 10 -14 0 -20 -9 -23 -35 -3 -23 -1 -32 6 -25 13 13 66
13 66 0 0 -5 -9 -10 -19 -10 -11 0 -23 -5 -26 -11 -4 -6 -13 -8 -21 -5 -8 3
-14 0 -14 -6 0 -29 -14 7 -15 37 0 19 -5 35 -10 35 -6 -1 -10 -9 -9 -20 0 -10
-3 -17 -8 -14 -16 10 -30 -7 -17 -22 6 -7 16 -11 22 -7 5 3 7 1 3 -5 -10 -16
28 -24 58 -12 15 5 42 10 59 9 28 -1 26 -2 -18 -15 -27 -7 -60 -14 -71 -14
-28 0 -99 77 -86 93 5 7 12 19 15 27 4 8 4 -3 2 -25 -4 -27 -2 -35 4 -25 5 8
7 18 5 22 -3 4 0 8 6 8 7 0 8 6 1 19 -8 14 -6 25 9 44 17 22 18 26 4 31 -24 9
-31 7 -14 -4 13 -9 13 -12 -1 -23 -9 -6 -24 -27 -33 -45 -13 -24 -21 -31 -29
-23 -8 6 -18 6 -27 1 -8 -6 -19 -10 -25 -10 -5 1 -2 5 8 11 25 15 21 29 -10
29 -21 0 -24 3 -14 9 8 5 20 7 27 4 9 -3 11 2 7 16 -3 12 1 29 8 39 11 14 11
15 -1 5 -18 -17 -41 -17 -39 0 3 27 -2 36 -20 32 -13 -2 -18 1 -15 10 6 13 40
9 50 -6 10 -17 22 -9 22 14 0 19 -5 23 -27 19 -22 -3 -27 0 -29 22 -1 22 2 26
26 26 19 0 23 3 13 9 -27 17 -51 1 -51 -35 0 -55 -24 -64 -178 -64 -128 0
-133 1 -142 23 -5 12 -9 16 -9 10 -1 -7 -7 -13 -14 -13 -16 0 -18 30 -4 48 7
9 7 16 -1 24 -8 8 -12 48 -12 105 l0 93 33 1 c17 0 26 3 20 6 -8 3 -13 26 -13
62 0 78 15 91 106 92 120 2 214 21 107 22 -18 0 -20 2 -10 19 7 10 27 24 45
30 18 7 30 18 28 24 -3 7 4 20 15 30 18 17 19 16 19 -24 0 -23 -3 -42 -7 -43
-5 0 -22 -2 -40 -2 -17 -1 -34 -5 -38 -9 -4 -3 19 -6 50 -5 31 2 59 -1 61 -5
3 -5 -2 -8 -10 -8 -9 0 -16 -4 -16 -10 0 -6 11 -5 26 2 22 11 28 10 40 -7 11
-14 14 -15 14 -4 0 9 -15 22 -32 30 l-33 14 -8 149 c-5 81 -6 150 -4 152 13
13 180 35 231 30 42 -3 51 -2 31 3 -16 5 -47 9 -68 10 -27 1 -36 5 -31 14 6
10 4 10 -7 0 -17 -17 -29 -16 -29 1 0 7 -7 19 -15 26 -8 7 -15 18 -14 24 4 32
-4 45 -36 60 -34 16 -49 31 -21 20 28 -11 30 19 3 41 -15 11 -27 25 -27 29 0
5 8 2 18 -7 10 -10 21 -14 24 -11 8 8 21 -34 14 -45 -3 -5 0 -14 8 -20 11 -9
13 -4 13 29 0 22 3 43 7 47 4 5 7 4 6 -2 -5 -25 1 -45 15 -45 8 0 15 5 15 10
0 6 -5 10 -11 10 -5 0 -7 5 -3 11 4 8 9 7 16 -2 7 -11 11 -11 15 -1 2 6 10 9
15 6 6 -4 16 0 23 9 25 34 56 27 93 -22 54 -70 80 -92 105 -86 12 3 60 10 107
14 78 8 80 8 28 10 -62 1 -69 8 -38 36 11 10 17 22 14 26 -3 5 0 10 5 10 6 1
14 2 19 4 4 1 21 5 37 10 17 4 36 13 44 19 12 9 13 8 6 -4 -16 -26 -14 -38 9
-45 11 -4 24 -8 29 -10 4 -1 10 -3 13 -4 4 0 2 -7 -3 -13 -15 -19 -24 -76 -16
-106 6 -25 6 -25 14 -4 5 12 15 22 24 22 12 0 15 -12 15 -54 0 -34 -5 -56 -12
-59 -8 -3 -6 -6 5 -6 14 -1 17 7 17 42 0 23 3 72 6 108 6 65 7 66 43 79 49 18
81 21 78 7 -1 -7 4 -11 11 -9 8 1 11 -2 8 -7 -3 -5 4 -21 15 -35 12 -15 18
-33 15 -41 -3 -8 3 -16 13 -20 28 -9 50 -38 54 -71 2 -16 7 -36 12 -44 4 -8 5
-12 0 -8 -10 9 -34 -21 -35 -42 0 -11 13 -15 50 -16 35 -1 50 2 50 12 0 7 -5
16 -10 19 -6 4 -8 10 -5 15 3 5 -4 14 -15 20 -19 10 -20 19 -18 113 l3 102 50
8 c27 5 65 5 84 2 l34 -6 -5 -70 c-4 -53 -2 -72 9 -81 9 -7 19 -21 24 -33 8
-17 9 -16 4 7 -4 21 1 31 25 48 26 18 30 19 30 5 0 -9 5 -13 10 -10 5 3 10 26
10 49 0 89 7 104 62 122 l50 16 36 -36 c24 -25 40 -35 51 -30 167 70 345 102
509 91 163 -10 363 -79 494 -169 33 -23 36 -23 40 4 3 25 54 41 101 32 26 -5
27 -8 27 -64 0 -40 4 -59 14 -63 8 -3 12 -17 10 -36 -3 -23 5 -40 33 -73 20
-24 51 -67 70 -96 25 -38 39 -52 50 -48 13 5 13 4 4 -8 -9 -10 -6 -25 14 -65
63 -125 95 -269 96 -436 1 -157 -28 -298 -82 -407 l-19 -38 47 -24 c27 -14 44
-25 40 -26 -4 0 -26 9 -49 21 -44 23 -52 19 -65 -31 -3 -14 -9 -27 -13 -30
-17 -12 -111 -142 -108 -149 9 -22 394 -356 407 -353 13 2 14 1 2 -7 -8 -5
-20 -7 -28 -4 -7 3 -13 0 -13 -6 0 -6 -7 -11 -15 -11 -8 0 -15 -4 -15 -9 0
-14 23 -19 45 -10 11 4 29 8 40 8 11 0 -1 -7 -27 -15 -45 -14 -68 -40 -53 -64
3 -5 2 -10 -2 -10 -16 0 -12 -39 5 -43 15 -4 15 -5 0 -6 -17 -1 -26 -21 -10
-21 24 0 182 33 183 39 2 15 9 48 18 76 13 42 13 9 0 -40 -6 -22 -10 -49 -10
-60 0 -14 -2 -16 -8 -7 -6 10 -26 9 -102 -7 -53 -11 -81 -20 -64 -21 l30 -1
-25 -10 c-18 -8 -21 -12 -11 -18 9 -6 12 -23 10 -53 -3 -28 1 -50 9 -57 7 -7
10 -16 8 -20 -3 -4 8 -5 24 -3 17 2 27 8 24 13 -3 5 -10 7 -15 4 -5 -4 -9 1
-9 10 0 16 26 32 36 22 3 -3 7 -13 9 -24 1 -10 7 -17 12 -16 5 1 9 -7 9 -18 0
-17 -2 -18 -11 -6 -9 12 -20 13 -62 5 l-51 -10 -7 -69 c-7 -64 -9 -69 -31 -69
-14 0 -22 5 -19 13 2 6 11 104 20 217 22 284 22 287 47 293 11 3 19 10 17 15
-5 12 -360 332 -377 339 -7 3 -38 -19 -70 -49 -57 -54 -148 -120 -209 -152
-18 -9 -33 -21 -33 -27 0 -5 32 -76 71 -158 l71 -148 36 -1 c89 -3 224 -25
229 -38 9 -25 -15 -426 -26 -433 -14 -9 13 -24 97 -51 62 -20 151 -64 269
-132 33 -20 76 -41 95 -47 70 -23 270 -163 311 -218 13 -16 25 -71 40 -173
l22 -150 1197 0 1198 0 0 2035 0 2035 -4000 0 -4000 0 0 -2035z m2331 1518 c0
-16 2 -15 10 2 8 19 9 19 6 1 -3 -27 -23 -31 -30 -6 -3 11 -1 20 4 20 5 0 9
-8 10 -17z m479 -33 c-25 -10 -56 -19 -70 -19 -16 1 -7 6 23 14 27 7 51 16 55
19 3 3 12 6 21 5 9 0 -4 -9 -29 -19z m-110 -20 c-8 -5 -19 -10 -25 -10 -5 0
-3 5 5 10 8 5 20 10 25 10 6 0 3 -5 -5 -10z m17 -67 c3 -7 -3 -9 -16 -6 -12 3
-21 10 -21 15 0 13 32 6 37 -9z m76 -3 c-39 -17 -43 -23 -43 -55 0 -19 -4 -35
-9 -35 -4 0 -8 15 -7 33 1 33 22 56 61 69 40 13 39 6 -2 -12z m-833 -15 c7 -9
10 -18 6 -22 -3 -3 -6 -1 -6 6 0 7 -5 9 -12 5 -6 -4 -8 -3 -4 4 3 5 0 13 -6
15 -8 4 -9 6 -2 6 6 1 17 -6 24 -14z m993 -12 c-7 -2 -21 -2 -30 0 -10 3 -4 5
12 5 17 0 24 -2 18 -5z m-927 -40 c4 -22 3 -22 -16 -6 -24 21 -26 36 -3 31 9
-2 18 -13 19 -25z m694 4 c0 -13 5 -28 12 -35 9 -9 9 -12 0 -12 -13 0 -32 32
-32 54 0 9 5 16 10 16 6 0 10 -10 10 -23z m-613 -10 c2 -3 -3 -7 -12 -10 -8
-4 -15 -2 -15 3 0 6 -6 10 -14 10 -8 0 -17 4 -21 9 -5 9 52 -3 62 -12z m-57
-27 c-12 -8 -12 -10 4 -10 11 0 17 -3 13 -6 -3 -3 -15 -3 -27 1 -20 6 -21 7
-3 20 10 7 20 11 23 9 2 -3 -2 -9 -10 -14z m2900 -89 c0 -10 -3 -39 -6 -65 -6
-38 -11 -46 -28 -47 -15 -1 -13 -3 8 -8 34 -7 47 -31 17 -31 -25 0 -71 -20
-71 -32 0 -12 12 -10 31 8 23 21 102 7 107 -19 2 -11 -3 -17 -17 -17 -11 0
-22 -4 -25 -9 -5 -7 -61 -8 -108 -2 -4 1 -7 11 -5 24 1 17 -4 23 -24 25 -32 4
-39 22 -39 114 0 76 -2 75 98 77 54 1 62 -1 62 -18z m276 -191 c-4 -63 -2 -72
17 -85 17 -12 19 -17 9 -27 -10 -10 -19 -9 -43 5 -43 24 -57 21 -25 -6 20 -18
24 -25 14 -35 -17 -17 -45 -15 -66 6 -10 9 -27 22 -38 28 -15 9 -19 25 -22 92
-5 92 -9 88 100 91 l58 1 -4 -70z m349 -54 c1 0 -2 -35 -5 -76 -4 -41 -7 -69
-8 -62 -4 31 -82 31 -82 0 0 -7 4 -7 13 -1 13 11 46 13 45 4 -3 -26 4 -40 17
-35 8 4 15 1 15 -5 0 -6 16 -19 35 -28 32 -15 36 -21 33 -52 -5 -64 -90 -83
-116 -26 -11 24 -13 25 -36 10 -21 -14 -28 -14 -72 3 l-49 20 -1 53 c-1 50 -1
51 3 8 3 -33 9 -48 21 -52 9 -3 25 -8 35 -12 15 -6 17 1 17 74 0 45 -4 81 -9
81 -5 0 -22 3 -39 6 -28 6 -31 4 -35 -22 -2 -16 -5 1 -6 38 l-1 66 63 10 c47
7 159 6 162 -2z m-3868 -33 c-3 -10 -5 -4 -5 12 0 17 2 24 5 18 2 -7 2 -21 0
-30z m4218 -245 c1 -1 0 -38 -4 -81 -5 -62 -4 -75 5 -62 11 15 16 14 56 -11
23 -15 45 -28 47 -30 2 -2 -2 -16 -9 -31 -8 -16 -16 -57 -19 -93 l-6 -65 -83
-3 c-53 -2 -89 1 -98 9 -9 7 -14 8 -14 1 0 -6 6 -12 13 -15 8 -3 3 -11 -13
-25 l-25 -20 -60 31 -60 32 -8 150 c-10 211 -14 198 58 212 52 10 211 11 220
1z m-878 -44 c-3 -3 -12 -4 -19 -1 -8 3 -5 6 6 6 11 1 17 -2 13 -5z m-60 -10
c-3 -3 -12 -4 -19 -1 -8 3 -5 6 6 6 11 1 17 -2 13 -5z m290 -240 c-3 -3 -12
-4 -19 -1 -8 3 -5 6 6 6 11 1 17 -2 13 -5z m-3511 -102 c119 -23 134 -30 134
-62 0 -34 -15 -47 -35 -30 -21 17 -20 -6 0 -26 20 -20 20 -100 1 -111 -11 -6
-17 -39 -22 -120 l-7 -113 -33 -19 -33 -20 -30 35 c-17 19 -32 34 -35 34 -2 0
-6 -9 -9 -21 -3 -12 -10 -18 -15 -15 -6 3 -12 2 -14 -4 -2 -6 -13 -12 -24 -14
-20 -4 -22 0 -19 35 1 21 -1 37 -4 35 -4 -3 -8 -22 -9 -43 -3 -41 -17 -63 -30
-47 -31 34 -131 163 -144 184 -12 18 -18 67 -22 179 l-7 153 68 -5 c37 -3 84
-9 103 -13 34 -6 34 -6 15 10 -19 16 -16 17 50 12 39 -3 93 -9 121 -14z m4255
-34 c-4 -13 -27 -114 -51 -226 -24 -112 -49 -209 -54 -217 -8 -9 -24 -11 -55
-6 l-45 6 3 60 c1 33 4 74 6 90 2 17 9 84 15 150 7 66 12 120 13 121 5 3 154
43 164 43 9 1 10 -6 4 -21z m-3946 -10 c6 -4 0 -8 -12 -8 -16 0 -21 4 -16 15
3 9 8 12 12 8 3 -4 11 -11 16 -15z m4074 -233 c-26 -180 -25 -175 -57 -175
-27 0 -27 0 -27 72 0 50 4 76 14 84 18 14 26 92 10 110 -9 11 -8 14 3 14 15 0
16 37 2 85 -4 14 6 8 34 -20 l40 -40 -19 -130z m-3728 157 c-7 -2 -18 1 -23 6
-8 8 -4 9 13 5 13 -4 18 -8 10 -11z m333 10 c9 -16 -9 -29 -41 -29 -21 0 -30
4 -26 13 7 19 58 31 67 16z m2263 -8 c-3 -3 -12 -4 -19 -1 -8 3 -5 6 6 6 11 1
17 -2 13 -5z m-2372 -14 c-3 -5 -10 -10 -16 -10 -5 0 -9 5 -9 10 0 6 7 10 16
10 8 0 12 -4 9 -10z m-45 -19 c24 -7 24 -8 -6 -12 -18 -3 -40 0 -50 8 -16 12
-16 13 7 12 13 -1 35 -4 49 -8z m2547 3 c-3 -3 -12 -4 -19 -1 -8 3 -5 6 6 6
11 1 17 -2 13 -5z m68 -14 c18 -8 18 -9 -5 -9 -14 0 -32 4 -40 9 -12 8 -12 10
5 9 11 0 29 -4 40 -9z m52 -16 c-3 -3 -12 -4 -19 -1 -8 3 -5 6 6 6 11 1 17 -2
13 -5z m40 -10 c-3 -3 -12 -4 -19 -1 -8 3 -5 6 6 6 11 1 17 -2 13 -5z m-3264
-31 c-7 -2 -19 -2 -25 0 -7 3 -2 5 12 5 14 0 19 -2 13 -5z m4040 -60 c-6 -15
-23 -17 -23 -3 0 6 6 10 13 11 10 0 10 2 0 6 -7 2 -13 17 -12 31 l1 27 13 -30
c7 -16 11 -35 8 -42z m-4100 50 c-7 -2 -19 -2 -25 0 -7 3 -2 5 12 5 14 0 19
-2 13 -5z m-50 -10 c-7 -2 -19 -2 -25 0 -7 3 -2 5 12 5 14 0 19 -2 13 -5z
m3664 -19 c-3 -3 -12 -4 -19 -1 -8 3 -5 6 6 6 11 1 17 -2 13 -5z m-3211 -13
c-4 -5 0 -12 6 -14 8 -3 6 -6 -4 -6 -18 -1 -24 10 -11 22 9 10 15 8 9 -2z
m3291 -7 c-3 -3 -12 -4 -19 -1 -8 3 -5 6 6 6 11 1 17 -2 13 -5z m40 -10 c-3
-3 -12 -4 -19 -1 -8 3 -5 6 6 6 11 1 17 -2 13 -5z m40 -10 c-3 -3 -12 -4 -19
-1 -8 3 -5 6 6 6 11 1 17 -2 13 -5z m40 -10 c-3 -3 -12 -4 -19 -1 -8 3 -5 6 6
6 11 1 17 -2 13 -5z m-707 -94 c52 -27 91 -49 85 -49 -5 0 -53 22 -105 49 -52
27 -90 49 -85 49 6 0 53 -22 105 -49z m960 30 c0 -5 -4 -10 -10 -10 -5 0 -10
5 -10 10 0 6 5 10 10 10 6 0 10 -4 10 -10z m10 -50 c0 -5 -4 -10 -10 -10 -5 0
-10 5 -10 10 0 6 5 10 10 10 6 0 10 -4 10 -10z m-780 -70 c33 -17 60 -33 60
-35 0 -5 -119 52 -129 61 -13 12 16 1 69 -26z m-3215 -15 c116 -11 108 0 101
-133 -4 -65 -9 -148 -12 -187 l-5 -70 -65 -3 c-111 -5 -110 -4 -117 -127 -4
-62 -3 -114 3 -124 7 -14 3 -24 -18 -45 -16 -14 -35 -26 -43 -26 -7 0 -55 23
-105 50 l-91 49 -6 68 c-4 37 -9 149 -12 248 -3 99 -8 194 -10 210 -3 17 -1
36 4 43 8 14 253 62 286 57 11 -2 52 -6 90 -10z m3790 -26 l75 -11 0 -47 c0
-70 -11 -120 -24 -115 -12 5 -13 -102 -1 -161 6 -29 5 -31 -26 -33 -41 -3 -87
-31 -70 -41 9 -6 8 -11 -3 -20 -8 -7 -21 -9 -27 -5 -8 5 -10 2 -6 -9 3 -9 0
-18 -9 -21 -21 -8 -17 -40 8 -51 32 -15 32 -28 -2 -63 l-30 -32 -75 42 c-49
27 -77 50 -80 63 -2 11 -7 121 -10 245 l-6 225 93 21 c118 27 104 26 193 13z
m-775 -19 c0 -5 -4 -10 -10 -10 -5 0 -10 5 -10 10 0 6 5 10 10 10 6 0 10 -4
10 -10z m320 0 c8 -5 11 -10 5 -10 -5 0 -17 5 -25 10 -8 5 -10 10 -5 10 6 0
17 -5 25 -10z m105 -50 c3 -6 -1 -7 -9 -4 -18 7 -21 14 -7 14 6 0 13 -4 16
-10z m412 -202 c-2 -13 -4 -5 -4 17 -1 22 1 32 4 23 2 -10 2 -28 0 -40z m-630
-34 c-3 -3 -12 -4 -19 -1 -8 3 -5 6 6 6 11 1 17 -2 13 -5z m-63 -19 c-17 -8
-44 -16 -60 -20 -16 -3 -6 4 21 14 57 22 86 26 39 6z m55 -56 c-13 -26 -23
-18 -14 10 3 12 11 19 16 16 5 -4 5 -14 -2 -26z m708 -20 c21 -18 43 -65 43
-93 0 -33 -10 -57 -21 -50 -5 3 -9 -4 -9 -15 0 -23 -4 -24 -35 -12 -11 5 -25
4 -32 -1 -14 -11 -36 -1 -28 13 4 5 -5 5 -20 -1 -35 -13 -35 -13 -35 10 0 10
-7 23 -16 28 -34 19 16 127 67 144 17 6 66 -7 86 -23z m-3745 -108 c3 -102 3
-104 -23 -124 -27 -20 -94 -37 -117 -29 -8 2 -12 36 -12 117 l0 112 58 7 c31
4 64 11 72 16 8 5 15 8 17 7 1 -1 3 -49 5 -106z m3103 89 c3 -5 1 -10 -4 -10
-6 0 -11 5 -11 10 0 6 2 10 4 10 3 0 8 -4 11 -10z m-252 -77 c-7 -2 -19 -2
-25 0 -7 3 -2 5 12 5 14 0 19 -2 13 -5z m17 -142 c0 -16 -3 -36 -6 -45 -12
-31 -24 -16 -24 29 0 33 4 45 15 45 10 0 15 -10 15 -29z m107 7 c-3 -8 -6 -5
-6 6 -1 11 2 17 5 13 3 -3 4 -12 1 -19z m-60 -30 c-3 -7 -5 -2 -5 12 0 14 2
19 5 13 2 -7 2 -19 0 -25z m36 -128 c-5 -35 -13 -54 -23 -56 -8 -1 -23 -5 -32
-9 -11 -4 -18 -3 -18 4 0 7 13 17 29 22 26 9 30 17 37 62 4 29 9 47 11 41 2
-5 0 -34 -4 -64z m497 -118 c0 -129 -2 -151 -17 -164 -32 -28 -77 -46 -128
-52 -28 -3 -42 -3 -32 0 18 5 18 17 13 163 l-5 158 69 12 c39 7 72 17 76 22
18 30 24 -5 24 -139z m-539 107 c-5 -13 -10 -19 -10 -12 -1 15 10 45 15 40 3
-2 0 -15 -5 -28z m-1837 -746 c4 -9 2 -21 -4 -27 -7 -7 -11 -7 -10 -1 2 6 2
17 1 25 -1 13 -3 13 -10 0 -6 -8 -7 -18 -4 -24 3 -5 1 -6 -5 -2 -16 10 -15 33
1 39 21 9 25 8 31 -10z"/>
<path d="M4800 3216 c0 -8 10 -17 23 -19 l22 -4 -22 -2 c-20 -1 -23 -6 -23
-46 0 -25 3 -45 8 -45 4 0 21 9 37 20 17 11 24 20 18 20 -9 0 -13 16 -13 45 0
41 -2 45 -25 45 -15 0 -25 -6 -25 -14z"/>
<path d="M4880 3189 c0 -20 4 -29 13 -27 17 6 18 58 1 58 -9 0 -14 -12 -14
-31z"/>
<path d="M5080 3041 c0 -60 14 -101 35 -101 24 0 29 29 9 51 -16 18 -16 22 -1
53 18 38 14 46 -20 46 -21 0 -23 -4 -23 -49z"/>
<path d="M5173 3073 c-18 -7 -16 -32 2 -39 8 -4 13 -10 10 -14 -3 -5 -1 -11 5
-15 6 -4 9 10 7 34 -1 23 -4 41 -7 40 -3 0 -11 -3 -17 -6z"/>
<path d="M5360 2945 c0 -17 6 -25 18 -25 9 0 27 -3 40 -6 18 -5 22 -2 22 15 0
14 -8 22 -27 27 -16 3 -34 7 -40 10 -8 2 -13 -6 -13 -21z"/>
<path d="M5498 2943 c-29 -7 -23 -43 7 -43 20 0 25 5 25 25 0 25 -1 26 -32 18z"/>
<path d="M5546 2773 c-28 -24 -29 -27 -15 -52 8 -14 24 -27 36 -29 61 -9 88
59 35 90 -26 16 -28 15 -56 -9z"/>
<path d="M5662 2639 c2 -24 8 -33 23 -35 51 -7 60 -10 67 -19 4 -6 8 -2 8 8 0
10 -7 20 -15 23 -8 4 -15 11 -15 16 0 6 6 5 15 -2 12 -10 15 -10 15 3 0 9 -13
18 -32 22 -18 4 -41 9 -51 12 -16 4 -18 0 -15 -28z"/>
<path d="M5836 2627 c3 -10 9 -15 12 -12 3 3 0 11 -7 18 -10 9 -11 8 -5 -6z"/>
<path d="M5660 2557 c0 -19 3 -68 6 -109 l7 -75 43 -22 44 -21 -3 120 -2 119
-30 6 c-16 4 -38 9 -47 11 -15 4 -18 -1 -18 -29z m60 -37 c0 -5 -4 -10 -10
-10 -5 0 -10 5 -10 10 0 6 5 10 10 10 6 0 10 -4 10 -10z"/>
<path d="M5852 2565 c0 -16 2 -22 5 -12 2 9 2 23 0 30 -3 6 -5 -1 -5 -18z"/>
<path d="M5806 2523 c-3 -4 -5 -20 -5 -37 l1 -31 7 29 c7 33 33 42 55 20 17
-16 30 -19 21 -4 -3 6 -1 10 4 10 6 0 11 3 11 8 0 8 -86 13 -94 5z"/>
<path d="M5930 2474 c0 -9 40 -23 44 -15 3 5 -5 11 -19 13 -14 3 -25 4 -25 2z"/>
<path d="M5802 2395 c0 -16 2 -22 5 -12 2 9 2 23 0 30 -3 6 -5 -1 -5 -18z"/>
<path d="M1610 2223 c0 -10 4 -14 8 -8 4 6 11 13 16 18 5 4 2 7 -7 7 -10 0
-17 -8 -17 -17z"/>
<path d="M1787 2218 c9 -15 10 -18 13 -60 2 -33 2 -33 10 7 8 39 -1 65 -22 65
-5 0 -6 -6 -1 -12z"/>
<path d="M1610 2053 c0 -106 3 -134 12 -125 15 15 19 42 7 42 -5 0 -8 42 -8
93 2 70 4 83 9 52 7 -38 7 -38 9 18 1 45 -2 57 -14 57 -13 0 -15 -22 -15 -137z"/>
<path d="M1811 2011 c-16 -10 -24 -71 -10 -71 5 0 9 7 9 16 0 8 3 13 8 11 4
-3 7 8 7 24 0 16 0 29 0 29 0 0 -6 -4 -14 -9z"/>
<path d="M1798 1923 c-2 -5 -1 -24 3 -43 l6 -35 2 43 c1 39 -3 52 -11 35z"/>
<path d="M5936 2250 c-33 -9 -62 -22 -64 -30 -5 -13 4 -12 78 5 8 2 20 4 26 4
11 1 29 31 22 36 -2 0 -30 -6 -62 -15z"/>
<path d="M5931 2208 c-24 -7 -31 -12 -21 -18 10 -6 8 -9 -6 -13 -15 -4 -13 -5
6 -6 41 -1 68 10 73 30 6 21 -1 22 -52 7z"/>
<path d="M5871 2018 c-21 -58 -18 -148 5 -125 6 6 54 134 54 144 0 2 -11 3
-25 3 -17 0 -28 -7 -34 -22z"/>
<path d="M2720 2199 c0 -5 5 -7 10 -4 6 3 10 8 10 11 0 2 -4 4 -10 4 -5 0 -10
-5 -10 -11z"/>
<path d="M1808 1693 c7 -3 16 -2 19 1 4 3 -2 6 -13 5 -11 0 -14 -3 -6 -6z"/>
<path d="M1858 1683 c7 -3 16 -2 19 1 4 3 -2 6 -13 5 -11 0 -14 -3 -6 -6z"/>
<path d="M2053 1650 c0 -25 2 -35 4 -22 2 12 2 32 0 45 -2 12 -4 2 -4 -23z"/>
<path d="M2026 1634 c-4 -9 -4 -19 -1 -22 2 -3 7 3 11 12 4 9 4 19 1 22 -2 3
-7 -3 -11 -12z"/>
<path d="M1748 1613 c7 -3 16 -2 19 1 4 3 -2 6 -13 5 -11 0 -14 -3 -6 -6z"/>
<path d="M1788 1603 c7 -3 16 -2 19 1 4 3 -2 6 -13 5 -11 0 -14 -3 -6 -6z"/>
<path d="M1825 1600 c-3 -5 -1 -10 4 -10 6 0 11 5 11 10 0 6 -2 10 -4 10 -3 0
-8 -4 -11 -10z"/>
<path d="M2044 1586 c-3 -7 -4 -33 -2 -57 3 -43 4 -42 8 14 5 58 4 68 -6 43z"/>
<path d="M1768 1563 c6 -2 18 -2 25 0 6 3 1 5 -13 5 -14 0 -19 -2 -12 -5z"/>
<path d="M2020 1532 c0 -21 -6 -44 -12 -51 -11 -10 -10 -11 5 -6 12 5 17 18
17 51 0 24 -2 44 -5 44 -3 0 -5 -17 -5 -38z"/>
<path d="M1811 1556 c2 -2 20 -6 39 -10 25 -4 31 -3 20 4 -14 9 -69 15 -59 6z"/>
<path d="M1778 1543 c7 -3 16 -2 19 1 4 3 -2 6 -13 5 -11 0 -14 -3 -6 -6z"/>
<path d="M1769 1524 c25 -8 61 -16 80 -19 20 -3 5 4 -34 15 -79 22 -113 25
-46 4z"/>
<path d="M1830 1530 c34 -11 60 -11 35 0 -11 5 -29 8 -40 8 -16 0 -15 -2 5 -8z"/>
<path d="M1739 1512 c11 -8 11 -10 0 -15 -8 -2 8 -11 35 -18 42 -12 45 -15 25
-20 -13 -4 -33 -7 -44 -7 -20 -1 -20 0 -1 7 19 7 19 8 -2 13 -18 5 -21 2 -20
-18 2 -17 7 -22 18 -19 9 3 38 -2 66 -10 60 -18 82 -18 34 0 -25 10 -29 14
-15 15 l20 1 -20 10 c-15 7 -12 8 15 4 49 -7 18 9 -48 25 -29 7 -51 15 -48 17
5 5 71 -9 112 -23 13 -5 16 -4 9 3 -5 6 -32 16 -60 22 -27 7 -59 14 -70 17
-15 4 -16 3 -6 -4z m74 -69 c-7 -2 -19 -2 -25 0 -7 3 -2 5 12 5 14 0 19 -2 13
-5z"/>
<path d="M1744 1424 c-17 -7 -4 -44 15 -44 14 0 14 2 1 10 -22 15 -9 12 55
-10 32 -11 60 -18 63 -15 5 5 5 5 -78 34 -30 11 -50 20 -44 20 6 1 31 -6 54
-14 23 -8 50 -15 59 -14 9 0 -11 9 -44 19 -64 21 -64 21 -81 14z"/>
<path d="M1756 1371 c-18 -7 -18 -8 -3 -14 10 -4 32 -4 50 -1 30 4 30 4 7 -6
-13 -6 -34 -9 -46 -6 -19 5 -21 2 -19 -26 1 -18 7 -34 13 -36 6 -2 9 5 7 17
-4 24 17 33 51 21 32 -13 43 -13 24 0 -13 8 -13 10 2 10 28 0 31 -19 3 -26
-14 -3 -25 -11 -25 -17 0 -7 -4 -7 -12 1 -7 7 -19 12 -27 12 -13 -1 -13 -3 2
-11 23 -13 11 -32 -15 -23 -13 4 -18 2 -14 -4 3 -6 1 -14 -5 -18 -8 -4 13 -20
52 -40 35 -18 67 -33 72 -34 4 0 7 36 7 80 0 57 -4 80 -12 80 -10 0 -9 3 1 9
9 6 -1 13 -35 25 -53 18 -51 18 -78 7z m89 -31 c-11 -5 -27 -9 -35 -9 -9 0 -8
4 5 9 11 5 27 9 35 9 9 0 8 -4 -5 -9z"/>
<path d="M1790 1310 c8 -5 20 -10 25 -10 6 0 3 5 -5 10 -8 5 -19 10 -25 10 -5
0 -3 -5 5 -10z"/>
<path d="M5580 1665 c0 -41 2 -45 28 -51 15 -3 40 -10 56 -15 51 -16 56 -13
53 38 l-2 48 -50 11 c-84 20 -85 20 -85 -31z"/>
<path d="M5590 1546 c0 -33 3 -104 6 -157 l7 -96 54 -27 c29 -14 56 -26 59
-26 6 0 -6 322 -13 330 -2 2 -28 12 -58 21 l-55 17 0 -62z"/>
<path d="M3990 3458 c-14 -6 -33 -10 -42 -9 -10 1 -18 -2 -18 -7 0 -6 -9 -8
-20 -5 -11 3 -20 9 -20 14 0 5 -14 9 -30 9 -44 0 -110 -23 -110 -38 0 -7 -13
-15 -29 -18 -21 -5 -30 -13 -34 -33 -6 -32 -3 -36 20 -26 10 5 26 7 36 6 10
-1 21 8 27 24 10 26 10 26 39 9 17 -10 27 -22 24 -27 -3 -5 -8 -32 -12 -61
l-6 -51 -49 -3 c-40 -3 -52 1 -70 20 l-21 23 -3 -22 c-3 -21 -55 -48 -72 -38
-9 6 -80 -22 -80 -31 0 -4 19 -41 42 -83 48 -89 40 -88 -12 2 l-36 62 -47 -1
c-32 0 -47 4 -47 13 0 29 -16 9 -32 -40 -12 -40 -14 -55 -5 -66 9 -11 9 -15
-1 -19 -20 -6 -43 -33 -39 -46 2 -6 -2 -15 -10 -21 -10 -7 -4 -11 24 -13 l37
-2 -24 25 c-13 14 -19 25 -13 25 5 0 17 -8 27 -19 10 -11 25 -16 40 -14 20 4
26 -1 37 -30 7 -19 18 -33 24 -31 6 3 24 -5 39 -17 24 -19 25 -22 11 -33 -14
-10 11 -39 169 -201 102 -105 185 -184 186 -177 0 7 5 10 11 6 7 -4 9 0 5 12
-3 11 -12 51 -21 89 -8 39 -22 97 -31 131 -9 33 -14 71 -12 85 4 22 14 -13 32
-107 3 -12 15 -68 28 -124 27 -124 29 -119 52 135 24 265 38 399 42 410 6 15
-5 -154 -21 -310 -25 -250 -29 -319 -17 -311 6 3 45 66 87 139 42 72 81 137
87 142 7 7 9 7 6 0 -13 -25 -148 -256 -163 -279 -18 -28 -18 -28 55 -39 20 -3
18 -5 -8 -6 l-33 -1 15 -29 c9 -16 13 -31 10 -34 -3 -3 21 -27 52 -53 32 -27
80 -70 108 -95 28 -26 150 -135 270 -242 l219 -196 36 52 c48 69 103 158 99
162 -2 1 -19 12 -38 24 -41 24 -33 28 11 5 17 -8 33 -14 35 -11 2 2 18 41 34
85 l30 82 -53 14 c-28 8 -65 18 -80 22 -15 3 -26 8 -24 10 2 3 36 -3 75 -13
40 -9 74 -14 78 -10 10 9 23 86 24 135 l0 42 -42 2 -43 1 40 4 c45 5 58 18 50
50 -3 12 -1 25 5 28 13 8 13 81 0 106 -6 10 -18 19 -28 20 -13 0 -12 2 5 9 20
8 20 12 11 52 -6 24 -15 48 -20 55 -5 7 -7 16 -4 22 3 5 -4 7 -16 4 -20 -4
-21 -3 -6 7 15 9 16 14 3 49 -28 79 -44 103 -68 95 -21 -6 -21 -6 -3 9 19 14
19 16 -12 63 -17 27 -42 64 -55 82 l-24 32 -49 -42 -49 -42 37 40 c37 39 38
40 18 57 -11 9 -30 17 -41 17 -30 0 -58 39 -59 80 0 31 -6 39 -57 73 -36 24
-60 34 -66 28 -7 -7 -20 -5 -38 4 -15 8 -30 11 -33 6 -4 -5 -15 -7 -26 -4 -11
3 -17 9 -14 14 3 5 0 9 -5 9 -6 0 -11 11 -11 24 0 21 -8 26 -77 44 -100 26
-163 36 -163 25 0 -4 19 -28 42 -51 30 -32 38 -46 29 -51 -9 -6 -3 -12 18 -19
17 -6 31 -16 31 -21 0 -15 -34 -31 -64 -31 -16 0 -26 -6 -26 -15 0 -8 -9 -15
-20 -15 -14 0 -20 7 -20 21 0 12 4 17 11 13 8 -4 7 1 -1 15 -9 18 -9 22 2 20
25 -3 36 1 42 17 5 14 4 15 -9 4 -8 -7 -27 -10 -43 -8 -31 4 -30 7 -34 -107
-1 -38 -3 -54 -5 -34 -3 27 -10 38 -25 42 -19 5 -20 11 -14 68 3 34 6 77 6 95
0 29 6 36 38 53 39 21 25 28 -18 9z m460 -208 c0 -25 -4 -28 -38 -32 -21 -1
-45 -2 -55 0 -26 5 -21 48 10 76 l27 25 28 -20 c19 -14 28 -29 28 -49z m-130
-5 c0 -8 -7 -15 -15 -15 -13 0 -14 3 -3 15 16 18 18 18 18 0z m-542 -90 c0
-16 -2 -15 -8 5 -4 14 -8 34 -8 45 0 16 2 15 8 -5 4 -14 8 -34 8 -45z m558
-12 c-8 -16 -22 -37 -31 -48 -15 -19 -16 -19 -4 5 16 32 40 70 45 70 3 0 -2
-12 -10 -27z m-506 -217 c0 -40 -12 -5 -30 89 -11 53 -20 102 -19 108 1 17 49
-174 49 -197z m427 82 c-90 -157 -108 -188 -113 -188 -7 0 22 54 79 148 52 85
78 115 34 40z m-586 -88 c61 -102 163 -290 156 -290 -6 0 -117 191 -176 305
-58 112 -54 109 20 -15z m899 107 c0 -2 -17 -19 -37 -38 l-38 -34 34 38 c33
34 41 42 41 34z m-1050 -17 c10 -5 25 -23 33 -40 15 -29 15 -29 -5 -19 -26 14
-58 46 -58 59 0 13 6 13 30 0z m950 -73 c0 -2 -52 -50 -115 -106 -63 -56 -115
-100 -115 -97 0 5 222 205 228 206 1 0 2 -2 2 -3z m-633 -69 c-3 -7 -5 -2 -5
12 0 14 2 19 5 13 2 -7 2 -19 0 -25z m863 27 c0 -2 -10 -9 -22 -15 -22 -11
-22 -10 -4 4 21 17 26 19 26 11z m-160 -90 c0 -2 -10 -9 -22 -15 -22 -11 -22
-10 -4 4 21 17 26 19 26 11z m-50 -30 c0 -2 -10 -9 -22 -15 -22 -11 -22 -10
-4 4 21 17 26 19 26 11z m-311 -98 c-87 -82 -199 -180 -199 -174 0 7 243 227
250 227 3 -1 -20 -24 -51 -53z m201 38 c0 -2 -10 -9 -22 -15 -22 -11 -22 -10
-4 4 21 17 26 19 26 11z m-50 -30 c0 -2 -13 -11 -30 -20 -38 -19 -40 -11 -2 9
31 17 32 18 32 11z m-90 -49 c0 -2 -37 -25 -82 -51 -104 -60 -105 -60 -93 -48
9 10 166 103 172 103 2 0 3 -2 3 -4z m-376 -63 c15 -25 24 -48 22 -51 -3 -2
-16 19 -30 47 -33 64 -27 67 8 4z m446 23 c0 -6 -123 -47 -127 -42 -2 2 22 13
54 24 62 22 73 24 73 18z m257 -12 c-3 -3 -12 -4 -19 -1 -8 3 -5 6 6 6 11 1
17 -2 13 -5z m-44 -11 c-7 -2 -19 -2 -25 0 -7 3 -2 5 12 5 14 0 19 -2 13 -5z
m-88 -18 c-27 -7 -63 -13 -80 -13 -21 0 -13 4 25 13 72 17 120 16 55 0z m-398
-91 c-3 -3 -12 -4 -19 -1 -8 3 -5 6 6 6 11 1 17 -2 13 -5z m473 -14 c53 -5 3
-6 -135 -3 -121 3 -222 7 -224 9 -8 7 272 2 359 -6z m48 -275 c89 -43 161 -80
159 -82 -5 -4 -609 285 -622 298 -9 10 55 -21 463 -216z m-133 176 c105 -27
184 -50 177 -50 -16 -1 -384 87 -390 94 -12 11 32 2 213 -44z"/>
<path d="M2269 3453 c-3 -25 4 -79 11 -87 5 -5 14 2 21 18 12 25 13 25 31 10
19 -18 25 -40 8 -29 -5 3 -10 2 -10 -3 0 -6 12 -13 26 -16 18 -5 24 -12 20
-22 -3 -9 -1 -12 4 -9 15 10 12 35 -5 35 -8 0 -15 6 -15 13 0 23 -26 50 -50
51 -13 0 -25 8 -27 16 -4 12 -3 12 5 1 7 -10 11 -10 17 -1 4 7 1 16 -6 21 -17
11 -29 11 -30 2z"/>
<path d="M2616 3443 c-4 -5 -12 -9 -17 -9 -22 -3 -23 -6 -4 -14 19 -8 19 -9
-2 -9 -12 -1 -23 4 -25 9 -2 6 -8 2 -15 -9 -10 -16 -9 -18 8 -14 12 3 19 0 19
-8 0 -11 2 -11 10 1 8 12 11 13 19 1 6 -9 10 -2 13 23 2 20 3 36 3 36 -1 0 -5
-3 -9 -7z"/>
<path d="M3998 3423 c-24 -6 -23 -33 1 -33 10 0 21 9 24 20 3 11 2 19 -1 19
-4 -1 -15 -3 -24 -6z"/>
<path d="M4036 3394 c-4 -9 -4 -19 -1 -22 2 -3 7 3 11 12 4 9 4 19 1 22 -2 3
-7 -3 -11 -12z"/>
<path d="M2634 3391 c4 -5 13 -8 21 -4 10 3 15 -1 15 -12 0 -11 -5 -15 -15
-11 -10 3 -16 -1 -16 -14 -1 -11 -2 -25 -3 -32 -1 -6 5 -13 12 -15 7 -3 12 5
12 21 0 14 5 26 11 26 6 0 9 10 7 23 -2 14 -11 23 -27 25 -14 2 -21 0 -17 -7z"/>
<path d="M2312 3368 c-2 -14 -13 -17 -64 -17 -91 1 -98 0 -98 -9 0 -5 12 -14
26 -20 14 -7 22 -17 19 -23 -5 -7 -11 -6 -21 2 -18 15 -18 2 0 -16 12 -12 15
-12 19 -1 3 8 29 15 62 19 31 3 59 8 62 10 2 3 3 20 0 39 -2 18 -5 25 -5 16z"/>
<path d="M3520 3340 c-37 -24 -41 -30 -22 -30 18 0 22 -6 22 -30 0 -16 4 -30
9 -30 24 0 41 14 41 35 0 15 8 26 20 30 11 3 20 10 20 13 0 7 -36 42 -43 42
-1 0 -22 -14 -47 -30z"/>
<path d="M4550 3320 c0 -21 29 -54 38 -45 4 3 0 10 -8 15 -10 7 -11 10 -2 10
20 0 14 27 -8 33 -15 4 -20 0 -20 -13z"/>
<path d="M2330 3320 c0 -5 5 -10 10 -10 6 0 10 5 10 10 0 6 -4 10 -10 10 -5 0
-10 -4 -10 -10z"/>
<path d="M2402 3300 c0 -19 2 -27 5 -17 2 9 2 25 0 35 -3 9 -5 1 -5 -18z"/>
<path d="M3976 3314 c-9 -24 -7 -54 4 -54 6 0 10 6 10 13 0 6 3 22 6 35 7 25
-11 31 -20 6z"/>
<path d="M3690 3309 c0 -5 5 -7 10 -4 6 3 10 8 10 11 0 2 -4 4 -10 4 -5 0 -10
-5 -10 -11z"/>
<path d="M4622 3294 c-1 -14 2 -23 8 -19 12 7 14 45 2 45 -4 0 -9 -11 -10 -26z"/>
<path d="M2575 3290 c-3 -5 -1 -10 4 -10 6 0 11 5 11 10 0 6 -2 10 -4 10 -3 0
-8 -4 -11 -10z"/>
<path d="M3590 3280 c0 -5 5 -10 10 -10 6 0 10 5 10 10 0 6 -4 10 -10 10 -5 0
-10 -4 -10 -10z"/>
<path d="M3106 3175 c-19 -15 -19 -15 1 -15 30 0 54 11 47 21 -8 13 -26 11
-48 -6z"/>
<path d="M2060 3156 c0 -19 6 -25 30 -28 17 -3 30 -1 30 4 0 4 -11 8 -25 8
-14 0 -25 4 -25 10 0 6 20 8 48 5 51 -6 34 7 -25 18 -30 6 -33 4 -33 -17z"/>
<path d="M2732 3160 c0 -14 2 -19 5 -12 2 6 2 18 0 25 -3 6 -5 1 -5 -13z"/>
<path d="M3185 3170 c-3 -5 -2 -10 4 -10 5 0 13 5 16 10 3 6 2 10 -4 10 -5 0
-13 -4 -16 -10z"/>
<path d="M2785 3129 c-30 -7 -30 -7 -3 -8 15 0 30 -6 34 -13 4 -7 3 -8 -4 -4
-7 4 -12 3 -12 -3 0 -5 9 -9 20 -8 23 1 24 6 7 27 -8 11 -21 14 -42 9z"/>
<path d="M2913 3133 c9 -2 23 -2 30 0 6 3 -1 5 -18 5 -16 0 -22 -2 -12 -5z"/>
<path d="M2850 3111 c0 -6 4 -13 10 -16 6 -3 7 1 4 9 -7 18 -14 21 -14 7z"/>
<path d="M3118 3094 c-4 -30 -3 -31 18 -22 13 6 20 16 17 24 -3 8 -9 12 -13 9
-5 -3 -10 1 -13 7 -2 7 -6 -1 -9 -18z"/>
<path d="M2064 3084 c3 -9 6 -29 6 -45 0 -23 3 -27 18 -22 15 6 15 5 3 -10
-20 -24 -7 -32 21 -13 14 9 28 13 31 9 4 -3 7 1 7 10 0 10 -4 17 -9 17 -6 0
-22 11 -37 25 -20 19 -23 25 -10 25 9 0 16 5 16 10 0 6 -12 10 -26 10 -20 0
-25 -4 -20 -16z"/>
<path d="M2890 3081 c8 -5 18 -7 22 -5 4 3 8 -3 9 -13 0 -10 3 -13 5 -6 3 7
11 10 19 7 7 -3 16 -1 20 5 3 7 -3 11 -17 12 -13 0 -34 2 -48 5 -18 3 -21 2
-10 -5z"/>
<path d="M3185 3080 c3 -5 17 -10 31 -10 13 0 24 5 24 10 0 6 -14 10 -31 10
-17 0 -28 -4 -24 -10z"/>
<path d="M2970 3055 c-7 -8 -21 -15 -31 -15 -13 0 -19 -7 -19 -21 0 -15 5 -20
23 -17 13 2 21 -2 20 -9 -4 -18 8 -16 23 5 11 14 13 14 13 2 0 -8 -6 -24 -14
-34 -8 -10 -12 -23 -9 -27 3 -5 -2 -21 -10 -36 -14 -26 -16 -27 -21 -8 -6 21
-45 33 -45 14 0 -6 5 -7 10 -4 6 3 10 -4 10 -17 0 -17 3 -19 9 -9 7 11 11 10
19 -5 9 -16 14 -10 39 41 17 33 40 76 52 96 19 32 20 38 6 49 -12 10 -15 10
-15 -1 0 -10 -3 -10 -12 -1 -16 16 -33 15 -48 -3z"/>
<path d="M2880 3020 c0 -13 18 -22 24 -11 3 5 -1 11 -9 15 -8 3 -15 1 -15 -4z"/>
<path d="M3420 2910 c0 -13 5 -20 13 -17 6 2 12 10 12 17 0 7 -6 15 -12 18 -8
2 -13 -5 -13 -18z"/>
<path d="M3495 2836 c5 -26 3 -35 -11 -40 -16 -6 -16 -8 4 -22 12 -8 27 -12
34 -8 6 4 8 3 5 -4 -4 -5 24 -33 63 -62 38 -29 70 -54 70 -56 0 -4 -150 97
-234 158 -39 28 -56 34 -84 31 -51 -6 -67 -17 -84 -62 l-16 -40 94 -37 c52
-21 93 -39 91 -41 -2 -1 -40 11 -86 27 -90 33 -107 36 -109 18 0 -7 -2 -22 -4
-32 -2 -16 8 -23 52 -38 50 -17 51 -18 15 -13 -22 3 -53 8 -68 11 -15 3 -27 2
-26 -3 5 -16 -22 -92 -37 -108 -8 -8 -12 -16 -7 -16 4 -1 58 -5 118 -9 l110
-7 -125 -2 c-69 -1 -120 -5 -113 -8 8 -3 9 -10 3 -21 -17 -29 -50 -126 -45
-130 3 -3 36 0 74 7 39 6 76 11 83 10 18 -1 -135 -38 -199 -48 -29 -4 -56 -10
-59 -14 -4 -3 3 -18 15 -33 11 -15 21 -32 22 -38 0 -6 19 -26 41 -45 36 -32
42 -34 71 -23 18 6 44 8 58 5 15 -3 40 2 59 12 17 9 38 14 46 11 8 -3 26 -1
40 4 39 15 20 -7 -27 -31 -22 -11 -37 -24 -34 -29 3 -5 0 -7 -7 -5 -8 3 -22
-2 -33 -10 -19 -16 -19 -16 3 -5 22 11 23 10 13 -9 -6 -11 -16 -23 -21 -26 -6
-3 -10 -15 -10 -25 0 -23 44 -38 125 -43 66 -3 89 -12 79 -30 -15 -27 68 59
249 256 106 115 194 213 196 219 2 6 -3 9 -11 6 -11 -5 -14 0 -10 17 3 20 -1
25 -29 34 -33 9 -33 9 -6 10 15 1 27 4 27 9 0 10 -353 362 -363 362 -4 0 -5
-15 -2 -34z m-128 -232 c-3 -3 -12 -4 -19 -1 -8 3 -5 6 6 6 11 1 17 -2 13 -5z
m40 -10 c-3 -3 -12 -4 -19 -1 -8 3 -5 6 6 6 11 1 17 -2 13 -5z m413 -60 c0 -8
-33 13 -65 41 -25 22 -23 22 18 -5 26 -17 47 -33 47 -36z m-333 40 c-3 -3 -12
-4 -19 -1 -8 3 -5 6 6 6 11 1 17 -2 13 -5z m173 -4 c8 -5 11 -10 5 -10 -5 0
-17 5 -25 10 -8 5 -10 10 -5 10 6 0 17 -5 25 -10z m-93 -16 c-3 -3 -12 -4 -19
-1 -8 3 -5 6 6 6 11 1 17 -2 13 -5z m71 -81 c-32 -2 -86 -2 -120 0 -35 2 -9 3
57 3 66 0 94 -1 63 -3z m205 -10 c-7 -2 -21 -2 -30 0 -10 3 -4 5 12 5 17 0 24
-2 18 -5z m4 -19 c-3 -3 -12 -4 -19 -1 -8 3 -5 6 6 6 11 1 17 -2 13 -5z m-2
-24 c-3 -5 -12 -10 -18 -10 -7 0 -6 4 3 10 19 12 23 12 15 0z m-60 -29 c-15
-13 -151 -86 -142 -76 8 9 138 84 147 85 2 0 0 -4 -5 -9z m-268 -7 c-3 -3 -12
-4 -19 -1 -8 3 -5 6 6 6 11 1 17 -2 13 -5z m-44 -11 c-7 -2 -19 -2 -25 0 -7 3
-2 5 12 5 14 0 19 -2 13 -5z m-98 -19 c-33 -7 -69 -13 -80 -12 -27 0 83 26
115 26 14 0 -2 -6 -35 -14z m234 -58 c-2 -2 -15 -9 -29 -15 -24 -11 -24 -11
-6 3 16 13 49 24 35 12z m-519 -24 c0 -5 -7 -9 -15 -9 -8 0 -15 4 -15 9 0 4 7
8 15 8 8 0 15 -4 15 -8z m460 -7 c0 -2 -22 -16 -50 -30 -27 -14 -50 -23 -50
-20 0 2 21 16 48 29 53 28 52 28 52 21z"/>
<path d="M3421 2841 c-12 -8 -11 -13 10 -30 31 -26 41 -26 37 2 -5 33 -22 44
-47 28z"/>
<path d="M2053 2790 c0 -30 2 -43 4 -27 2 15 2 39 0 55 -2 15 -4 2 -4 -28z"/>
<path d="M2910 2826 c0 -2 7 -7 16 -10 8 -3 12 -2 9 4 -6 10 -25 14 -25 6z"/>
<path d="M1950 2771 c0 -5 9 -7 20 -4 11 3 20 7 20 9 0 2 -9 4 -20 4 -11 0
-20 -4 -20 -9z"/>
<path d="M2901 2664 c0 -11 3 -14 6 -6 3 7 2 16 -1 19 -3 4 -6 -2 -5 -13z"/>
<path d="M2078 2653 c6 -2 18 -2 25 0 6 3 1 5 -13 5 -14 0 -19 -2 -12 -5z"/>
<path d="M2880 2536 c0 -9 -13 -16 -32 -19 -32 -4 -32 -4 5 -5 31 -2 37 1 37
18 0 11 -2 20 -5 20 -3 0 -5 -6 -5 -14z"/>
<path d="M2168 2533 c7 -3 16 -2 19 1 4 3 -2 6 -13 5 -11 0 -14 -3 -6 -6z"/>
<path d="M1721 2484 c0 -11 3 -14 6 -6 3 7 2 16 -1 19 -3 4 -6 -2 -5 -13z"/>
<path d="M2879 2448 c-3 -31 -7 -36 -19 -28 -13 9 -13 11 0 20 13 8 12 10 -2
10 -24 0 -23 -32 1 -47 13 -8 18 -20 15 -35 -4 -21 -4 -21 5 -3 8 16 10 12 9
-20 0 -22 -2 -32 -5 -22 -4 14 -8 16 -19 6 -22 -18 -17 -29 14 -30 l27 -1 -25
-7 c-14 -5 -37 -7 -52 -5 -16 2 -28 -1 -28 -6 0 -6 -7 -10 -16 -10 -9 0 -12 5
-8 12 5 8 2 9 -10 5 -10 -4 -21 -7 -24 -8 -4 0 2 -4 13 -9 19 -8 18 -9 -4 -9
-13 -1 -22 -4 -19 -7 4 -3 45 2 92 12 l86 17 -6 36 c-3 20 -9 65 -13 101 -7
56 -8 60 -12 28z"/>
<path d="M2812 2430 c0 -14 2 -19 5 -12 2 6 2 18 0 25 -3 6 -5 1 -5 -13z"/>
<path d="M2130 2423 c0 -12 5 -25 10 -28 6 -4 8 -16 5 -28 -5 -17 -4 -19 4 -7
9 13 11 13 11 -2 0 -9 -6 -19 -12 -21 -10 -4 -10 -6 -1 -6 8 -1 11 -12 7 -33
-5 -29 -4 -31 7 -14 15 25 30 88 18 80 -5 -3 -9 3 -10 13 -2 41 -19 88 -19 52
0 -11 -2 -11 -10 1 -8 12 -10 11 -10 -7z"/>
<path d="M2974 2395 c-8 -44 -7 -86 4 -97 4 -4 25 -3 46 3 l38 11 -7 46 c-9
62 -18 75 -48 76 -22 1 -26 -4 -33 -39z"/>
<path d="M3724 2233 c-283 -311 -256 -277 -242 -309 7 -16 13 -30 14 -32 1 -2
26 -6 55 -9 30 -3 102 -13 161 -22 l106 -17 -9 23 c-5 13 -5 23 0 23 5 0 12
-14 16 -31 13 -59 16 -47 60 276 37 264 40 295 27 295 -4 0 -89 -89 -188 -197z"/>
<path d="M3936 2418 c-5 -15 -64 -494 -68 -555 -2 -23 0 -39 4 -37 15 9 56
-46 51 -67 -5 -16 -8 -18 -15 -7 -5 9 -7 3 -5 -17 4 -36 50 -64 76 -48 19 12
26 110 10 130 -6 6 -9 22 -7 34 3 21 4 21 18 7 9 -8 26 -19 38 -22 13 -4 32
-17 42 -29 20 -21 20 -21 -2 -42 -26 -22 -30 -52 -9 -64 9 -6 10 -11 2 -15 -6
-4 -11 -23 -11 -42 0 -19 -3 -34 -7 -35 -49 -4 -94 -11 -120 -19 -32 -8 -50 0
-39 19 3 4 -9 5 -27 2 -29 -6 -33 -11 -41 -54 -12 -66 -5 -78 36 -66 49 15
185 21 193 9 11 -17 54 -11 65 10 6 11 14 19 18 18 23 -6 202 57 202 71 0 4
-49 110 -108 237 -60 126 -146 309 -192 407 -46 98 -87 180 -92 183 -4 3 -10
-1 -12 -8z"/>
<path d="M3970 2425 c0 -10 111 -244 254 -538 l137 -278 57 32 c87 50 118 72
176 127 29 28 55 50 58 49 15 -7 -124 121 -362 333 -291 260 -320 285 -320
275z"/>
<path d="M2770 2341 c0 -10 6 -21 13 -24 10 -4 13 2 9 19 -5 28 -22 32 -22 5z"/>
<path d="M2818 2313 c7 -3 16 -2 19 1 4 3 -2 6 -13 5 -11 0 -14 -3 -6 -6z"/>
<path d="M2670 2270 c8 -5 20 -10 25 -10 6 0 3 5 -5 10 -8 5 -19 10 -25 10 -5
0 -3 -5 5 -10z"/>
<path d="M2646 2242 c-2 -4 11 -6 30 -4 19 2 34 6 34 8 0 8 -59 4 -64 -4z"/>
<path d="M3295 2150 c-3 -6 1 -7 9 -4 18 7 21 14 7 14 -6 0 -13 -4 -16 -10z"/>
<path d="M3009 1967 c-8 -7 -21 -17 -29 -21 -9 -3 -6 -5 7 -2 12 2 24 -1 27
-8 3 -7 5 -7 5 2 1 7 6 10 11 7 12 -7 13 5 1 23 -7 11 -11 11 -22 -1z"/>
<path d="M4040 1781 c0 -6 4 -13 10 -16 6 -3 7 1 4 9 -7 18 -14 21 -14 7z"/>
<path d="M3725 1603 c-140 -6 -168 -23 -104 -62 47 -29 170 -55 181 -39 10 16
11 109 1 106 -5 -1 -39 -3 -78 -5z"/>
<path d="M3047 1487 c-282 -303 -267 -284 -267 -346 0 -31 -3 -66 -6 -78 -5
-18 -1 -25 17 -32 49 -18 89 -80 89 -135 0 -19 4 -38 10 -41 5 -3 -1 -29 -15
-62 -29 -65 -30 -74 -9 -66 24 9 94 -27 94 -49 0 -21 32 -38 38 -20 7 21 38
13 52 -13 l13 -25 18 38 c10 20 18 31 18 25 1 -16 33 -17 48 -2 9 9 24 9 58 0
44 -11 48 -10 66 10 17 20 24 19 20 -3 -3 -18 37 -6 42 11 2 11 4 82 3 158 -2
134 -3 138 -24 141 -12 2 -22 -1 -22 -7 0 -6 7 -11 15 -11 8 0 15 -4 15 -10 0
-5 -9 -10 -20 -10 -16 0 -20 7 -20 30 0 25 4 30 24 30 31 0 36 15 36 105 0 68
2 75 26 94 25 20 40 21 215 21 104 0 189 2 189 5 0 3 7 50 15 106 8 55 13 104
10 109 -2 4 -29 11 -58 14 -30 4 -105 25 -168 47 -63 22 -141 42 -174 44 -128
10 -187 17 -215 25 -28 8 -35 3 -133 -103z m261 -555 c-10 -2 -18 -7 -18 -12
0 -5 8 -11 18 -13 13 -4 11 -5 -5 -6 -18 -1 -23 4 -23 23 0 20 4 23 23 18 18
-5 19 -7 5 -10z"/>
<path d="M4315 1527 c-139 -54 -325 -85 -440 -73 l-62 6 -7 -62 c-4 -35 -9
-84 -13 -110 l-5 -47 38 -3 39 -3 3 -267 c1 -148 -1 -268 -6 -268 -4 0 -13 5
-20 12 -9 9 -12 9 -12 0 0 -7 4 -12 9 -12 5 0 17 -7 25 -16 9 -8 16 -11 16 -5
0 6 5 11 10 11 6 0 10 -7 10 -15 0 -8 9 -15 20 -15 12 0 20 7 20 16 0 14 -3
14 -15 4 -12 -10 -15 -10 -15 4 0 17 17 21 39 7 8 -6 11 -16 6 -31 l-7 -23 22
21 c13 12 27 19 32 16 4 -3 8 2 8 11 0 13 8 15 41 11 51 -6 58 -12 33 -31 -19
-14 -18 -14 2 -15 20 0 40 24 36 42 -1 4 10 3 23 -2 14 -5 31 -9 38 -7 7 1 11
-6 10 -16 -1 -14 4 -17 17 -14 11 3 21 0 24 -7 2 -6 5 11 5 38 1 39 -2 47 -14
42 -8 -3 -15 -1 -15 3 0 5 5 11 11 13 13 4 14 176 3 340 -5 80 -4 99 8 103 8
3 71 16 142 29 70 13 130 26 133 29 5 5 -122 282 -136 298 -4 3 -28 -3 -56
-14z m-242 -772 c-3 -9 -8 -14 -10 -11 -3 3 -2 9 2 15 9 16 15 13 8 -4z m97
-5 c0 -5 -7 -7 -15 -4 -8 4 -15 8 -15 10 0 2 7 4 15 4 8 0 15 -4 15 -10z
m-250 -14 c0 -8 -4 -18 -10 -21 -5 -3 -10 3 -10 14 0 12 5 21 10 21 6 0 10 -6
10 -14z m44 -11 c-6 -16 -24 -21 -24 -7 0 11 11 22 21 22 5 0 6 -7 3 -15z
m151 5 c-3 -5 -10 -10 -16 -10 -5 0 -9 5 -9 10 0 6 7 10 16 10 8 0 12 -4 9
-10z m75 -10 c0 -5 -4 -10 -10 -10 -5 0 -10 5 -10 10 0 6 5 10 10 10 6 0 10
-4 10 -10z m-180 -9 c0 -17 -21 -24 -33 -11 -9 10 -9 11 1 6 6 -4 12 -2 12 3
0 6 5 11 10 11 6 0 10 -4 10 -9z m220 -16 c0 -8 -4 -15 -10 -15 -5 0 -10 7
-10 15 0 8 5 15 10 15 6 0 10 -7 10 -15z"/>
<path d="M2350 1212 c0 -12 4 -22 9 -22 10 0 9 26 -2 36 -4 4 -7 -2 -7 -14z"/>
<path d="M2388 1213 c7 -3 16 -2 19 1 4 3 -2 6 -13 5 -11 0 -14 -3 -6 -6z"/>
<path d="M2438 1203 c41 -8 24 -25 -20 -19 -38 5 -40 4 -13 -4 17 -6 43 -7 59
-4 19 4 31 2 37 -7 6 -10 8 -7 6 9 -1 16 -6 21 -19 16 -10 -3 -18 -1 -18 5 0
6 -12 10 -27 10 -24 -2 -25 -2 -5 -6z"/>
<path d="M2358 1163 c7 -3 16 -2 19 1 4 3 -2 6 -13 5 -11 0 -14 -3 -6 -6z"/>
<path d="M2405 1150 c11 -5 29 -8 40 -8 16 0 15 2 -5 8 -34 11 -60 11 -35 0z"/>
<path d="M5052 1140 c0 -14 2 -19 5 -12 2 6 2 18 0 25 -3 6 -5 1 -5 -13z"/>
<path d="M2358 1138 c5 -5 16 -8 23 -6 8 3 3 7 -10 11 -17 4 -21 3 -13 -5z"/>
<path d="M2478 1133 c7 -3 16 -2 19 1 4 3 -2 6 -13 5 -11 0 -14 -3 -6 -6z"/>
<path d="M2408 1123 c7 -3 16 -2 19 1 4 3 -2 6 -13 5 -11 0 -14 -3 -6 -6z"/>
<path d="M2440 1116 c0 -2 9 -6 20 -9 11 -3 18 -1 14 4 -5 9 -34 13 -34 5z"/>
<path d="M3710 1090 c0 -28 3 -30 35 -30 32 0 35 2 35 30 0 28 -3 30 -35 30
-32 0 -35 -2 -35 -30z"/>
<path d="M4260 1096 c0 -22 6 -26 72 -41 54 -12 73 -13 79 -4 4 7 14 9 24 6 9
-4 13 -11 10 -17 -3 -5 -1 -10 4 -10 6 0 11 13 11 28 0 28 -2 29 -82 41 -46 7
-91 14 -100 17 -14 4 -18 -1 -18 -20z"/>
<path d="M2360 1096 c0 -6 53 -20 110 -31 23 -4 30 -3 20 3 -8 5 -33 13 -55
16 -22 4 -48 9 -57 12 -10 3 -18 3 -18 0z"/>
<path d="M5021 1048 c0 -27 4 -48 9 -48 11 0 11 21 0 65 -7 27 -8 25 -9 -17z"/>
<path d="M2364 1045 c0 -27 3 -31 20 -27 20 5 20 5 0 14 -12 5 -3 6 26 3 32
-3 38 -2 20 4 l-25 8 25 4 c20 3 17 6 -20 15 l-46 10 0 -31z m39 8 c-7 -2 -19
-2 -25 0 -7 3 -2 5 12 5 14 0 19 -2 13 -5z"/>
<path d="M5056 1063 c-6 -14 -5 -15 5 -6 7 7 10 15 7 18 -3 3 -9 -2 -12 -12z"/>
<path d="M2475 1041 l20 -8 -20 -5 c-18 -5 -18 -6 3 -7 13 -1 22 5 22 14 0 9
-9 15 -22 14 -22 0 -22 -1 -3 -8z"/>
<path d="M4267 1026 c3 -14 8 -26 12 -26 3 0 45 -11 94 -24 l87 -24 0 27 c0
29 10 25 -176 68 -19 4 -21 1 -17 -21z m183 -46 c0 -5 -6 -10 -14 -10 -8 0
-18 5 -21 10 -3 6 3 10 14 10 12 0 21 -4 21 -10z"/>
<path d="M2405 1011 c-16 -7 -17 -9 -5 -13 8 -3 2 -4 -15 -2 -20 3 -25 1 -16
-5 11 -7 11 -9 0 -13 -8 -3 6 -12 31 -21 25 -10 33 -15 18 -12 -14 3 -33 8
-41 11 -13 4 -15 -1 -10 -28 3 -18 6 -34 7 -35 1 -1 24 6 51 16 29 11 43 21
35 24 -8 2 -3 3 13 1 46 -6 30 4 -35 22 -34 10 -56 20 -50 22 7 2 33 -3 59
-12 26 -9 47 -16 48 -16 1 0 2 7 2 16 0 9 -10 19 -21 22 -20 6 -20 6 4 14 17
5 10 6 -20 3 -33 -4 -39 -2 -25 4 25 12 -1 13 -30 2z m70 -31 l20 -9 -20 0
c-11 0 -29 4 -40 9 l-20 9 20 0 c11 0 29 -4 40 -9z m-78 -46 c-3 -3 -12 -4
-19 -1 -8 3 -5 6 6 6 11 1 17 -2 13 -5z m28 -14 c-11 -5 -27 -9 -35 -9 -9 0
-8 4 5 9 11 5 27 9 35 9 9 0 8 -4 -5 -9z"/>
<path d="M5016 974 c-8 -21 -8 -49 1 -41 7 7 14 57 8 57 -1 0 -6 -7 -9 -16z"/>
<path d="M3742 955 c0 -16 2 -22 5 -12 2 9 2 23 0 30 -3 6 -5 -1 -5 -18z"/>
<path d="M4273 940 c-1 -14 5 -20 20 -21 20 -1 20 -2 -3 -9 -21 -7 -22 -8 -5
-10 l20 -1 -20 -8 c-21 -9 -14 -12 108 -42 26 -6 46 -13 43 -16 -3 -3 -87 15
-148 33 -10 3 -18 1 -18 -4 0 -4 17 -13 38 -19 l37 -11 -40 5 c-22 3 -37 2
-33 -1 10 -12 148 -45 148 -36 0 5 -6 10 -12 13 -7 2 -1 2 15 0 22 -4 27 -1
27 16 0 15 -10 23 -42 31 -24 6 -47 13 -53 16 -14 6 63 -6 81 -13 8 -3 14 -1
14 5 0 5 -19 14 -42 20 l-43 11 40 -5 c36 -4 41 -2 42 15 1 12 0 21 -2 21 -2
0 -39 7 -82 15 -96 18 -88 19 -90 -5z m50 -7 c-7 -2 -19 -2 -25 0 -7 3 -2 5
12 5 14 0 19 -2 13 -5z m44 -9 c-3 -3 -12 -4 -19 -1 -8 3 -5 6 6 6 11 1 17 -2
13 -5z m50 -10 c-3 -3 -12 -4 -19 -1 -8 3 -5 6 6 6 11 1 17 -2 13 -5z m-60
-10 c-3 -3 -12 -4 -19 -1 -8 3 -5 6 6 6 11 1 17 -2 13 -5z m-20 -20 c-3 -3
-12 -4 -19 -1 -8 3 -5 6 6 6 11 1 17 -2 13 -5z m40 -60 c-3 -3 -12 -4 -19 -1
-8 3 -5 6 6 6 11 1 17 -2 13 -5z"/>
<path d="M4652 917 c-1 -24 -6 -36 -13 -32 -6 4 -8 13 -5 21 3 8 1 14 -4 14
-17 0 -11 -48 6 -54 23 -9 26 -4 21 45 l-4 44 -1 -38z"/>
<path d="M3688 933 c7 -3 16 -2 19 1 4 3 -2 6 -13 5 -11 0 -14 -3 -6 -6z"/>
<path d="M4583 915 c-7 -7 -17 -15 -22 -16 -16 -6 -20 -66 -6 -85 11 -15 12
-15 17 4 4 14 2 19 -7 15 -23 -8 -5 40 22 63 14 12 21 24 17 27 -5 3 -14 -1
-21 -8z"/>
<path d="M2466 911 c-19 -7 -18 -8 4 -14 13 -3 26 -4 29 -2 2 3 -2 5 -10 5
-11 0 -11 2 1 10 18 11 3 12 -24 1z"/>
<path d="M2398 888 c-16 -5 -28 -16 -28 -24 0 -16 2 -16 25 -8 12 5 13 9 5 14
-7 4 14 6 46 5 33 -2 52 0 44 4 -28 15 -65 19 -92 9z"/>
<path d="M2408 853 c-40 -16 -44 -23 -28 -54 7 -13 7 -19 0 -19 -5 0 -10 -5
-10 -10 0 -9 120 -70 136 -70 2 0 4 34 4 75 0 72 -1 76 -26 85 -31 12 -31 12
-76 -7z m72 -3 c18 -12 2 -12 -25 0 -13 6 -15 9 -5 9 8 0 22 -4 30 -9z m-16
-21 c5 -4 -1 -5 -14 -2 -16 4 -21 3 -16 -6 5 -8 1 -8 -19 1 -18 8 -22 14 -13
20 14 8 47 1 62 -13z"/>
<path d="M4570 858 c0 -4 7 -8 15 -8 8 0 15 4 15 8 0 5 -7 9 -15 9 -8 0 -15
-4 -15 -9z"/>
<path d="M3740 829 c0 -5 5 -7 10 -4 6 3 10 8 10 11 0 2 -4 4 -10 4 -5 0 -10
-5 -10 -11z"/>
<path d="M3633 823 c9 -2 23 -2 30 0 6 3 -1 5 -18 5 -16 0 -22 -2 -12 -5z"/>
<path d="M4286 811 c9 -9 83 -27 74 -18 -3 3 -23 10 -44 16 -22 5 -35 6 -30 2z"/>
<path d="M3571 787 c-13 -21 -12 -21 5 -5 10 10 16 20 13 22 -3 3 -11 -5 -18
-17z"/>
<path d="M3696 793 c-6 -14 -5 -15 5 -6 7 7 10 15 7 18 -3 3 -9 -2 -12 -12z"/>
<path d="M3765 790 c-3 -5 -2 -10 4 -10 5 0 13 5 16 10 3 6 2 10 -4 10 -5 0
-13 -4 -16 -10z"/>
<path d="M4640 790 c-13 -8 -12 -10 3 -10 9 0 17 5 17 10 0 12 -1 12 -20 0z"/>
<path d="M4370 786 c0 -2 9 -6 20 -9 11 -3 18 -1 14 4 -5 9 -34 13 -34 5z"/>
<path d="M4358 763 c7 -3 16 -2 19 1 4 3 -2 6 -13 5 -11 0 -14 -3 -6 -6z"/>
<path d="M3630 750 c0 -5 7 -7 15 -4 8 4 15 8 15 10 0 2 -7 4 -15 4 -8 0 -15
-4 -15 -10z"/>
<path d="M3783 753 c-21 -8 -15 -22 7 -16 11 3 20 9 20 14 0 10 -8 10 -27 2z"/>
<path d="M2586 717 c3 -10 9 -15 12 -12 3 3 0 11 -7 18 -10 9 -11 8 -5 -6z"/>
<path d="M3568 723 c7 -3 16 -2 19 1 4 3 -2 6 -13 5 -11 0 -14 -3 -6 -6z"/>
<path d="M3699 713 c-13 -17 -13 -17 6 -3 11 8 22 16 24 17 2 2 0 3 -6 3 -6 0
-17 -8 -24 -17z"/>
<path d="M4766 690 c-17 -6 -18 -7 -3 -13 32 -12 20 -53 -28 -93 -43 -35 -45
-38 -28 -54 11 -10 21 -13 24 -7 4 5 14 7 23 4 10 -4 16 -1 16 8 0 18 11 19
30 3 12 -11 12 -10 0 5 -12 16 -11 19 9 24 17 4 19 8 10 19 -9 11 -7 14 12 14
22 1 23 2 7 14 -22 16 -23 26 -2 26 11 0 14 5 9 18 -5 13 -4 14 6 5 10 -10 9
-15 -1 -28 -8 -10 -9 -15 -1 -15 6 0 11 -7 11 -15 0 -8 -5 -15 -11 -15 -5 0
-7 -5 -3 -12 4 -6 -1 -17 -11 -25 -11 -7 -15 -13 -11 -13 5 0 3 -7 -4 -15 -7
-8 -16 -13 -20 -10 -4 3 -11 -2 -14 -11 -3 -9 -13 -14 -21 -10 -8 3 -17 1 -20
-4 -11 -17 47 -33 81 -22 30 9 93 -5 67 -15 -19 -7 -16 -23 5 -23 11 0 18 -7
18 -20 0 -18 -5 -20 -46 -14 -55 7 -79 -13 -87 -75 -5 -33 -3 -41 11 -41 18 0
21 -15 5 -26 -6 -3 -9 -15 -6 -25 3 -11 1 -19 -3 -19 -4 0 -6 -9 -3 -20 3 -11
2 -28 -2 -37 -5 -10 -9 -24 -11 -32 -1 -7 -7 -18 -13 -24 -6 -6 -11 -21 -11
-34 0 -12 -9 -27 -20 -33 -11 -6 -20 -15 -20 -20 0 -6 126 -10 334 -10 l334 0
7 41 c8 48 -2 190 -17 238 -16 51 -92 144 -169 205 -76 61 -288 177 -364 199
-27 8 -59 11 -69 7z m205 -86 c28 -14 49 -27 47 -30 -5 -5 -109 30 -135 45
-41 24 39 10 88 -15z"/>
<path d="M3626 681 c-4 -5 3 -7 14 -4 23 6 26 13 6 13 -8 0 -17 -4 -20 -9z"/>
<path d="M4018 653 c7 -3 16 -2 19 1 4 3 -2 6 -13 5 -11 0 -14 -3 -6 -6z"/>
<path d="M4350 646 c0 -2 7 -7 16 -10 8 -3 12 -2 9 4 -6 10 -25 14 -25 6z"/>
<path d="M3905 590 c4 -6 11 -8 16 -5 14 9 11 15 -7 15 -8 0 -12 -5 -9 -10z"/>
<path d="M3895 520 c-3 -6 4 -9 19 -8 13 1 22 6 20 10 -7 11 -32 10 -39 -2z"/>
<path d="M4695 490 c-3 -5 -1 -10 4 -10 6 0 11 5 11 10 0 6 -2 10 -4 10 -3 0
-8 -4 -11 -10z"/>
<path d="M4790 430 c-8 -5 -10 -10 -5 -10 6 0 17 5 25 10 8 5 11 10 5 10 -5 0
-17 -5 -25 -10z"/>
<path d="M3470 419 c-45 -3 -58 -6 -34 -7 27 -1 44 -7 48 -17 7 -19 46 -16 68
6 22 23 10 25 -82 18z"/>
<path d="M3616 385 c4 -8 10 -15 15 -15 5 0 9 7 9 15 0 8 -7 15 -15 15 -9 0
-12 -6 -9 -15z"/>
<path d="M4570 19 c0 -11 25 -22 39 -17 6 1 -1 8 -14 15 -14 6 -25 7 -25 2z"/>
</g>
</svg>
