<svg width="311" height="202" viewBox="0 0 311 202" fill="none" xmlns="http://www.w3.org/2000/svg">
<path fill-rule="evenodd" clip-rule="evenodd" d="M126.475 24.1787C165.266 54.5071 203.971 88.4063 234.13 119.329C297.006 183.798 298.929 210.918 238.426 179.903C209.296 164.971 171.006 139.285 132.113 109.468C174.193 142.369 216.375 171.067 247.858 187.205C308.361 218.22 306.438 191.101 243.562 126.632C210.958 93.2019 168.366 56.2936 126.475 24.1787Z" fill="url(#paint0_linear_434_311)"/>
<path fill-rule="evenodd" clip-rule="evenodd" d="M206.497 155.547C172.758 122.667 135.645 90.3268 102.452 65.7064C33.2497 14.3767 7.29022 16.0379 44.47 69.4169C62.3706 95.1166 91.6434 128.119 124.912 161.164C88.3106 125.494 55.6807 89.1882 36.3343 61.4127C-0.845475 8.03378 25.114 6.37253 94.3165 57.7022C130.201 84.3188 170.666 119.957 206.497 155.547Z" fill="url(#paint1_linear_434_311)"/>
<path fill-rule="evenodd" clip-rule="evenodd" d="M268.595 170.855C234.857 137.975 197.744 105.635 164.55 81.0145C95.3479 29.6848 69.3884 31.346 106.568 84.725C124.469 110.425 153.742 143.427 187.01 176.472C150.409 140.802 117.779 104.496 98.4325 76.7208C61.2527 23.3419 87.2122 21.6806 156.415 73.0103C192.299 99.6269 232.765 135.266 268.595 170.855Z" fill="url(#paint2_linear_434_311)"/>
<path d="M119.5 78.5C119.5 76.8431 120.843 75.5 122.5 75.5H184.802C187.14 75.5 189.35 76.5624 190.81 78.3873V78.3873C191.898 79.7475 192.444 81.4621 192.343 83.201L186.5 184L124.5 186L119.5 78.5V78.5Z" fill="white"/>
<path fill-rule="evenodd" clip-rule="evenodd" d="M120.286 82H112.286L117.546 186.252C117.681 188.912 119.876 191 122.54 191H188.01C190.682 191 192.882 188.899 193.005 186.229L197.786 82H189.286L184.286 181.5H126.286L120.286 82Z" fill="black"/>
<path d="M104.331 65.6295C105.594 64.5766 107.187 64 108.831 64H201.236C202.573 64 203.879 64.3956 204.991 65.1369V65.1369C207.48 66.7961 208.431 69.9948 207.253 72.7442L205.624 76.5453C204.205 79.8544 200.952 82 197.351 82H112.662C109.351 82 106.307 80.1821 104.737 77.2669L102.782 73.6356C101.329 70.9381 101.977 67.5908 104.331 65.6295V65.6295Z" fill="black"/>
<g clip-path="url(#clip0_434_311)">
<path fill-rule="evenodd" clip-rule="evenodd" d="M147.385 111.968L146.409 111.293L142.036 108.266C141.475 107.877 141.14 107.237 141.14 106.554C141.14 105.703 141.658 104.938 142.448 104.621L142.532 104.588C143.223 104.311 144.008 104.401 144.619 104.826L154.395 111.627C154.818 111.921 154.948 112.487 154.697 112.936L148.712 123.622C148.359 124.254 147.691 124.645 146.967 124.645H146.64C146.01 124.645 145.417 124.348 145.04 123.845L144.936 123.706C144.453 123.063 144.403 122.193 144.808 121.499L146.876 117.953L147.64 116.645L146.203 117.124L144.831 117.581C141.101 118.824 138.522 122.237 138.343 126.165L138.207 129.17C138.164 130.104 137.706 130.97 136.959 131.531C136.457 131.907 135.785 131.968 135.224 131.687L135.093 131.621C134.494 131.322 134.072 130.747 133.958 130.087C132.534 121.778 138.07 113.884 146.178 112.349C146.577 112.273 146.983 112.213 147.394 112.169C147.397 112.102 147.394 112.035 147.385 111.968Z" fill="black"/>
<path fill-rule="evenodd" clip-rule="evenodd" d="M171.653 129.907L172.659 129.277L177.166 126.455C177.745 126.092 178.465 126.037 179.093 126.307C179.875 126.643 180.374 127.421 180.352 128.272L180.35 128.362C180.331 129.107 179.939 129.792 179.307 130.186L169.199 136.483C168.762 136.755 168.19 136.651 167.877 136.243L160.422 126.526C159.981 125.952 159.885 125.184 160.171 124.519L160.3 124.218C160.549 123.639 161.055 123.212 161.667 123.064L161.835 123.023C162.617 122.833 163.436 123.131 163.914 123.777L166.355 127.077L167.256 128.295L167.383 126.785L167.504 125.345C167.835 121.427 165.718 117.71 162.179 115.995L159.472 114.683C158.631 114.276 158.016 113.513 157.796 112.605C157.648 111.995 157.858 111.354 158.337 110.949L158.449 110.854C158.961 110.422 159.655 110.261 160.307 110.418C168.503 112.39 173.57 120.593 171.78 128.648C171.692 129.044 171.587 129.441 171.465 129.836C171.525 129.866 171.588 129.889 171.653 129.907Z" fill="black"/>
<path fill-rule="evenodd" clip-rule="evenodd" d="M142.342 141.502L142.29 142.687L142.054 148.001C142.024 148.683 141.661 149.307 141.083 149.671C140.362 150.124 139.438 150.093 138.75 149.592L138.677 149.539C138.075 149.101 137.733 148.389 137.768 147.645L138.321 135.749C138.345 135.235 138.755 134.823 139.269 134.797L151.501 134.175C152.224 134.138 152.91 134.495 153.295 135.108L153.47 135.385C153.805 135.918 153.87 136.578 153.644 137.165L153.582 137.327C153.295 138.078 152.585 138.584 151.781 138.61L147.679 138.747L146.165 138.797L147.336 139.759L148.453 140.676C151.491 143.172 155.752 143.539 159.173 141.599L161.79 140.115C162.603 139.654 163.58 139.581 164.452 139.915C165.038 140.14 165.447 140.676 165.508 141.3L165.522 141.447C165.588 142.113 165.326 142.776 164.827 143.224C158.552 148.852 148.922 148.368 143.307 142.321C143.03 142.024 142.763 141.712 142.507 141.388C142.449 141.42 142.393 141.458 142.342 141.502Z" fill="black"/>
</g>
<defs>
<linearGradient id="paint0_linear_434_311" x1="139.301" y1="117.851" x2="181.515" y2="62.7635" gradientUnits="userSpaceOnUse">
<stop stop-color="#31D8B0"/>
<stop offset="1" stop-color="white"/>
</linearGradient>
<linearGradient id="paint1_linear_434_311" x1="116.038" y1="155.424" x2="162.843" y2="108.322" gradientUnits="userSpaceOnUse">
<stop stop-color="#31D8B0" stop-opacity="0.41"/>
<stop offset="1" stop-color="white"/>
</linearGradient>
<linearGradient id="paint2_linear_434_311" x1="178.136" y1="170.732" x2="224.941" y2="123.63" gradientUnits="userSpaceOnUse">
<stop stop-color="#31D8B0" stop-opacity="0.41"/>
<stop offset="1" stop-color="white"/>
</linearGradient>
<clipPath id="clip0_434_311">
<rect width="51.9682" height="52.6409" fill="white" transform="translate(132 104.43)"/>
</clipPath>
</defs>
</svg>
