<svg width="242" height="201" viewBox="0 0 242 201" fill="none" xmlns="http://www.w3.org/2000/svg">
<path d="M27.7185 34.9536L58.6768 16.8743L89.8129 34.6454L89.9909 70.4956L59.0327 88.5748L27.8965 70.8038L27.7185 34.9536Z" stroke="#31D8B0" stroke-opacity="0.29" stroke-width="1.2"/>
<path d="M77.3484 49.4836L112.605 28.8941L148.065 49.1326L148.267 89.9606L113.01 110.55L77.551 90.3116L77.3484 49.4836Z" stroke="#31D8B0" stroke-opacity="0.29" stroke-width="1.2"/>
<path d="M5.71856 107.954L36.6768 89.8743L67.813 107.645L67.9909 143.496L37.0327 161.575L5.8965 143.804L5.71856 107.954Z" stroke="#31D8B0" stroke-opacity="0.29" stroke-width="1.2"/>
<path d="M157.861 12.0213L177.065 0.806657L196.378 11.8301L196.489 34.0681L177.285 45.2827L157.971 34.2593L157.861 12.0213Z" stroke="#31D8B0" stroke-opacity="0.29" stroke-width="1.2"/>
<path d="M156.857 103.453L195.584 80.8368L234.534 103.067L234.756 147.914L196.029 170.53L157.079 148.3L156.857 103.453Z" stroke="#31D8B0" stroke-opacity="0.29" stroke-width="1.2"/>
<path d="M75.1382 135.659C75.5112 135.115 76.128 134.791 76.787 134.791L88.4794 134.791C89.9706 134.791 90.9374 136.364 90.2636 137.694L72.0026 173.752C71.662 174.424 70.9722 174.848 70.2183 174.848L52.0331 174.848C50.4233 174.848 49.4732 173.043 50.3843 171.716L75.1382 135.659Z" fill="black"/>
<path d="M183.83 135.659C183.457 135.115 182.84 134.791 182.181 134.791L170.489 134.791C168.998 134.791 168.031 136.364 168.705 137.694L186.966 173.752C187.306 174.424 187.996 174.848 188.75 174.848L206.935 174.848C208.545 174.848 209.495 173.043 208.584 171.716L183.83 135.659Z" fill="black"/>
<path d="M160.264 135.971C159.942 135.253 159.228 134.791 158.44 134.791L146.857 134.791C145.537 134.791 144.579 136.047 144.929 137.32L154.83 173.378C155.069 174.246 155.858 174.848 156.759 174.848L174.643 174.848C176.094 174.848 177.062 173.352 176.467 172.028L160.264 135.971Z" fill="black"/>
<path d="M98.4645 135.971C98.7873 135.253 99.5014 134.791 100.289 134.791L111.872 134.791C113.192 134.791 114.15 136.047 113.8 137.32L103.899 173.378C103.66 174.246 102.871 174.848 101.97 174.848L84.0862 174.848C82.6354 174.848 81.6673 173.352 82.2619 172.028L98.4645 135.971Z" fill="black"/>
<path d="M121.913 136.132C122.1 135.197 122.921 134.524 123.874 134.524L135.094 134.524C136.048 134.524 136.869 135.197 137.055 136.132L144.256 172.19C144.504 173.427 143.557 174.581 142.295 174.581L116.673 174.581C115.411 174.581 114.465 173.427 114.712 172.19L121.913 136.132Z" fill="black"/>
<path d="M93.4996 97.0907L97.149 92.5574V46.93V46.93C98.058 46.3605 99.2114 46.3562 100.125 46.9189L100.143 46.93V52.6251H103.574V55.6187H100.143V71.6818H103.574V74.6023H100.143L100.581 92.5574L104.5 97.0907V119.725L106.434 121.53C108.036 123.025 108.846 125.183 108.622 127.363L108.5 128.557H89.9996L89.8889 127.457C89.6641 125.225 90.5234 123.02 92.1996 121.528L93.4996 120.37V97.0907Z" fill="black"/>
<path d="M105.5 52.5574C105.5 49.2437 108.186 46.5574 111.5 46.5574H115.835C119.149 46.5574 121.835 49.2437 121.835 52.5574V75.1148C121.835 78.4285 119.149 81.1148 115.835 81.1148H111.5C108.186 81.1148 105.5 78.4285 105.5 75.1148V52.5574Z" fill="black"/>
<circle cx="113.668" cy="53.1766" r="4.32977" fill="white"/>
<circle cx="113.668" cy="63.8361" r="4.32977" fill="white"/>
<circle cx="113.668" cy="74.4957" r="4.32977" fill="white"/>
</svg>
