<svg width="250" height="196" viewBox="0 0 250 196" fill="none" xmlns="http://www.w3.org/2000/svg">
<path d="M114.017 68.2604L187.851 142.095" stroke="#31D8B0" stroke-opacity="0.29" stroke-width="7" stroke-linecap="square"/>
<path d="M96.3502 29.3004L194.529 127.479" stroke="#31D8B0" stroke-opacity="0.29" stroke-width="10" stroke-linecap="square"/>
<path d="M43.3461 14.8912L200.204 171.749" stroke="#31D8B0" stroke-opacity="0.29" stroke-width="6" stroke-linecap="square"/>
<path d="M8.70239 5.74963L125.796 122.843" stroke="#31D8B0" stroke-opacity="0.29" stroke-width="3" stroke-linecap="square"/>
<path d="M52.4037 73.6525L162.99 184.239" stroke="#31D8B0" stroke-opacity="0.29" stroke-width="5" stroke-linecap="square"/>
<path d="M138.756 38.277L236.947 136.468" stroke="#31D8B0" stroke-opacity="0.29" stroke-width="3" stroke-linecap="square"/>
<path fill-rule="evenodd" clip-rule="evenodd" d="M147.324 85.1137L144.325 85.1192L143.782 134.069C143.531 132.175 143.239 130.491 142.91 128.99C141.667 123.326 139.852 120.092 137.496 118.137C135.503 116.485 133.224 115.871 131.222 115.332L131.222 115.332L131.222 115.332L131.221 115.332L131.221 115.332C130.913 115.249 130.611 115.168 130.318 115.085C129.537 114.864 128.773 114.624 128.024 114.312L128.036 114.321L122.825 112.635L124.114 114.642C124.809 115.724 125.799 116.584 126.966 117.121C127.832 117.475 128.682 117.739 129.501 117.971C129.847 118.069 130.181 118.16 130.503 118.249L130.504 118.249C132.53 118.803 134.127 119.24 135.581 120.446C137.21 121.798 138.807 124.289 139.98 129.633C140.443 131.743 140.833 134.27 141.137 137.304C140.708 136.643 140.267 136.04 139.816 135.486C137.805 133.013 135.649 131.588 133.858 130.405C133.691 130.294 133.526 130.185 133.365 130.078C133.036 129.858 132.723 129.646 132.427 129.435L127.93 126.556L127.97 126.677C128.78 129.17 130.302 131.367 132.345 133.001C134.089 134.157 135.831 135.339 137.489 137.379C139.006 139.245 140.49 141.884 141.702 145.935C141.714 146.271 141.726 146.61 141.737 146.954C141.357 146.529 140.945 146.172 140.5 145.873C139.443 145.165 138.321 144.879 137.274 144.717C136.767 144.639 136.249 144.586 135.76 144.536L135.759 144.536L135.759 144.535L135.759 144.535L135.726 144.532C135.215 144.48 134.726 144.429 134.228 144.354C133.454 144.238 132.655 144.064 131.824 143.728L126.937 142.22L127.414 143.232C128.269 145.045 129.891 146.378 131.834 146.866L131.786 146.887C132.471 147.091 133.138 147.224 133.782 147.321C134.36 147.408 134.918 147.465 135.421 147.517L135.421 147.517C135.936 147.569 136.387 147.616 136.815 147.682C137.662 147.813 138.293 148.006 138.831 148.366C139.882 149.07 141.07 150.763 141.934 155.724C142.282 157.719 142.568 160.182 142.784 163.225L143.473 167.999L144.08 177.683L144.08 188.776L143.74 194.582L143.837 195.326C145.963 192.951 147.287 189.963 147.615 186.788L147.672 186.23L148.157 180.577L148.561 172.308V169.146C148.666 161.353 149.682 156.541 151.084 153.482C152.451 150.499 154.208 149.13 156.035 148.259C156.99 147.804 157.976 147.479 159.032 147.135L159.102 147.112C160.015 146.815 161.001 146.493 161.938 146.061L162.612 145.672C164.831 144.392 165.99 141.842 165.494 139.329L164.169 140.904C162.995 142.299 161.417 143.295 159.656 143.756C159.175 143.933 158.66 144.101 158.102 144.283L158.089 144.287C157.058 144.623 155.896 145.002 154.744 145.551C152.347 146.694 150.045 148.548 148.357 152.232L148.314 152.325L148.247 147.791C149.749 141.121 151.55 137.425 153.373 135.336C155.14 133.312 157.026 132.686 159.091 132.424C159.887 132.323 160.667 132.28 161.503 132.234C161.813 132.217 162.131 132.2 162.46 132.179C163.631 132.104 164.891 131.985 166.147 131.643C166.616 131.515 167.079 131.358 167.533 131.165C169.769 129.722 171.15 127.269 171.221 124.607L168.389 127.13C167.942 127.528 167.447 127.866 166.917 128.137C166.508 128.356 166.095 128.523 165.68 128.654L165.548 128.705L165.562 128.69C165.494 128.711 165.426 128.73 165.358 128.748C164.406 129.008 163.394 129.113 162.268 129.185C161.998 129.202 161.717 129.218 161.428 129.233H161.428C160.561 129.281 159.624 129.333 158.713 129.448C156.167 129.771 153.506 130.622 151.113 133.364C150.26 134.341 149.456 135.542 148.703 137.015C149.388 131.646 150.223 128.163 151.129 125.839C152.257 122.945 153.463 121.923 154.632 121.25C155.063 121.002 155.444 120.822 155.877 120.618L155.878 120.618L155.878 120.618L155.878 120.618C156.161 120.484 156.467 120.34 156.824 120.159C157.654 119.739 158.553 119.21 159.445 118.373C160.317 117.554 161.131 116.49 161.888 115.039C162.711 113.34 162.837 111.377 162.222 109.576L161.907 108.654L159.456 113.197C158.753 114.66 158.051 115.566 157.392 116.185C156.786 116.754 156.161 117.132 155.469 117.483C155.265 117.586 155.025 117.7 154.766 117.823C154.246 118.07 153.652 118.353 153.135 118.65C151.331 119.688 149.691 121.268 148.334 124.749C148.195 125.106 148.058 125.484 147.925 125.884L147.324 85.1137Z" fill="black"/>
<path fill-rule="evenodd" clip-rule="evenodd" d="M150.27 28.6444L151.873 33.6812C155.582 45.3403 153.702 55.3973 151.392 65.1502C151.166 66.1016 150.937 67.0491 150.709 67.9945C149.337 73.6689 147.984 79.2688 147.555 85.1707C150.003 73.9958 153.994 66.9615 158.445 62.5187C165.085 55.8892 172.498 55.2969 176.341 54.9897L176.509 54.9763L181.525 54.5737L177.548 57.657C159.054 71.995 152.26 83.392 149.78 91.3602C149.508 92.235 149.287 93.0716 149.108 93.8697C148.86 95.7958 148.652 97.8278 148.486 99.9717C153.347 83.2092 160.046 73.5354 166.968 68.0009C176.284 60.5528 185.722 60.839 190.67 60.9891L190.88 60.9954L195.91 61.1463L191.618 63.774C165.885 79.5302 155.043 94.1312 150.466 104.564C150.361 104.804 150.259 105.041 150.16 105.277C149.825 106.612 149.501 107.99 149.188 109.412C159.919 92.4686 170.11 80.7491 179.602 74.0497C185.189 70.1065 190.601 67.8541 195.789 67.36C201.004 66.8633 205.888 68.1552 210.352 71.1204L213.641 73.3043L209.732 73.8553C186.655 77.1084 173.348 85.1801 164.547 94.0948C160.634 98.0583 157.583 102.217 154.947 106.263C162.665 96.4025 169.69 91.8345 175.853 90.1525C183.741 87.9993 189.902 90.6977 193.496 92.2716C193.878 92.4391 194.232 92.5939 194.555 92.7287L199.199 94.6657L194.252 95.5877C172.414 99.6576 160.849 106.087 154.739 111.564C152.447 114.793 150.075 118.538 147.631 122.873L146.351 122.492C146.299 122.524 146.244 122.555 146.184 122.583C145.835 122.747 145.505 122.752 145.238 122.7L144.742 123.175L144.74 123.173C141.607 119.894 138.629 116.912 135.795 114.209C134.035 112.837 131.989 111.414 129.635 110.028C119.571 104.097 103.802 98.7727 80.6243 101.009L76.6951 101.388L79.381 98.4949C82.9053 94.6993 86.699 91.7943 91.0235 90.2436C95.3741 88.6836 100.143 88.5371 105.525 90.0651C114.241 92.5401 124.633 99.43 137.763 111.94C139.182 113.291 140.632 114.708 142.115 116.192C140.962 113.419 139.808 110.872 138.658 108.535C138.442 108.217 138.213 107.894 137.97 107.565C133.141 101.016 122.896 92.2706 100.673 84.9833L95.8915 83.4154L100.751 82.1094C101.098 82.0163 101.477 81.9066 101.889 81.7878L101.889 81.7876L101.89 81.7873L101.89 81.7872C105.647 80.7018 112.024 78.8589 119.463 82.0313C126.32 84.9553 133.832 92.0018 141.257 107.023C141.509 107.398 141.745 107.767 141.967 108.128C141.522 106.116 141.056 104.192 140.572 102.352C140.311 101.68 140.021 100.99 139.698 100.281C135.337 90.6979 124.881 77.4711 98.8619 62.1204L94.5278 59.5633L99.5546 59.3301C99.7912 59.3191 100.039 59.3065 100.297 59.2935C105.307 59.04 114.292 58.5855 123.271 65.3472C130.791 71.0103 138.116 81.5753 143.315 100.994C143.339 100.694 143.362 100.38 143.384 100.05C143.33 97.3666 143.202 94.8482 143.01 92.4849C142.868 91.6794 142.685 90.8334 142.454 89.9468C140.347 81.872 134.09 70.1718 116.282 54.9903L112.452 51.7256L117.444 52.3608L117.611 52.382C121.436 52.8673 128.813 53.8033 135.139 60.7341C138.28 64.175 141.102 69.025 143.138 75.8927C142.261 63.6264 142.347 57.1981 143.085 52.6786C143.621 49.3949 144.498 47.1321 145.515 44.5105L145.515 44.5104L145.515 44.5102L145.516 44.5101L145.531 44.4712C146.545 41.8554 147.733 38.7929 148.988 33.7722L150.27 28.6444ZM150.344 39.9746C150.372 40.1354 150.4 40.2959 150.426 40.4562L150.305 40.0951L150.344 39.9746ZM123.641 103.651L123.762 103.703L123.589 103.568L123.641 103.651ZM104.802 62.2121C104.788 62.2031 104.773 62.1942 104.759 62.1852C104.813 62.1861 104.867 62.1872 104.921 62.1884L104.802 62.2121Z" fill="black"/>
</svg>
